<?xml version="1.0" encoding="UTF-8" standalone="no"?>
<svg
   id="Layer_1"
   data-name="Layer 1"
   viewBox="0 0 319.58627 303.75004"
   width="368.36255"
   height="309.03186"
   class="illustration styles_illustrationTablet__1DWOa"
   version="1.1"
   sodipodi:docname="experts.svg"
   inkscape:version="1.1 (c68e22c387, 2021-05-23)"
   xmlns:inkscape="http://www.inkscape.org/namespaces/inkscape"
   xmlns:sodipodi="http://sodipodi.sourceforge.net/DTD/sodipodi-0.dtd"
   xmlns:xlink="http://www.w3.org/1999/xlink"
   xmlns="http://www.w3.org/2000/svg"
   xmlns:svg="http://www.w3.org/2000/svg">
  <sodipodi:namedview
     id="namedview182"
     pagecolor="#ffffff"
     bordercolor="#666666"
     borderopacity="1.0"
     inkscape:pageshadow="2"
     inkscape:pageopacity="0.0"
     inkscape:pagecheckerboard="0"
     showgrid="false"
     inkscape:zoom="2.4607843"
     inkscape:cx="185.71315"
     inkscape:cy="155.43825"
     inkscape:window-width="1271"
     inkscape:window-height="1003"
     inkscape:window-x="2232"
     inkscape:window-y="312"
     inkscape:window-maximized="0"
     inkscape:current-layer="Layer_1" />
  <defs
     id="defs33">
    <linearGradient
       id="linear-gradient"
       x1="183.83"
       y1="264.73001"
       x2="185.89999"
       y2="304.51999"
       gradientUnits="userSpaceOnUse">
      <stop
         offset="0.01"
         id="stop2" />
      <stop
         offset="0.08"
         stop-opacity="0.69"
         id="stop4" />
      <stop
         offset="0.21"
         stop-opacity="0.32"
         id="stop6" />
      <stop
         offset="1"
         stop-opacity="0"
         id="stop8" />
    </linearGradient>
    <linearGradient
       id="linear-gradient-2"
       x1="198.78999"
       y1="115.83"
       x2="207.47"
       y2="258.13"
       xlink:href="#linear-gradient"
       gradientTransform="translate(-52.06342,-21.161401)" />
    <linearGradient
       id="linear-gradient-3"
       x1="2316.74"
       y1="-609.72998"
       x2="2301.1799"
       y2="-592.25"
       gradientTransform="matrix(-0.82,0.58,0.58,0.82,2321.0066,-771.2414)"
       xlink:href="#linear-gradient" />
    <linearGradient
       id="linear-gradient-4"
       x1="4330.77"
       y1="2142.8401"
       x2="4507.3301"
       y2="2228.49"
       gradientTransform="rotate(-142.1,1925.8456,1863.0268)"
       gradientUnits="userSpaceOnUse">
      <stop
         offset="0.01"
         id="stop13" />
      <stop
         offset="0.08"
         stop-opacity="0.69"
         id="stop15" />
      <stop
         offset="0.21"
         stop-opacity="0.32"
         id="stop17" />
      <stop
         offset="1"
         stop-opacity="0"
         id="stop19" />
    </linearGradient>
    <linearGradient
       id="linear-gradient-5"
       x1="151.05"
       y1="89.309998"
       x2="160.05"
       y2="133.45"
       xlink:href="#linear-gradient-4"
       gradientTransform="translate(-52.06342,-21.161401)" />
    <linearGradient
       id="linear-gradient-6"
       x1="2290.73"
       y1="-591.78003"
       x2="2325.28"
       y2="-589.91998"
       gradientTransform="matrix(-0.82,0.58,0.58,0.82,2321.0066,-771.2414)"
       xlink:href="#linear-gradient" />
    <linearGradient
       id="linear-gradient-7"
       x1="169.8"
       y1="127.82"
       x2="168.28999"
       y2="306.51999"
       xlink:href="#linear-gradient-4"
       gradientTransform="translate(-52.06342,-21.161401)" />
    <linearGradient
       id="linear-gradient-8"
       x1="163.48"
       y1="158.08"
       x2="90.669998"
       y2="199.84"
       xlink:href="#linear-gradient-4"
       gradientTransform="translate(-52.06342,-21.161401)" />
    <linearGradient
       id="linear-gradient-9"
       x1="130.94"
       y1="144.46001"
       x2="3.3"
       y2="217.66"
       xlink:href="#linear-gradient-4" />
    <linearGradient
       id="linear-gradient-10"
       x1="287.37"
       y1="96.879997"
       x2="352.62"
       y2="250.07001"
       xlink:href="#linear-gradient-4"
       gradientTransform="translate(-52.06342,-21.161401)" />
    <linearGradient
       id="linear-gradient-11"
       x1="169.38"
       y1="134.78"
       x2="406.73001"
       y2="301.17999"
       xlink:href="#linear-gradient-4"
       gradientTransform="translate(-52.06342,-21.161401)" />
    <linearGradient
       id="linear-gradient-12"
       x1="199.17"
       y1="253.11"
       x2="243.94"
       y2="12.38"
       xlink:href="#linear-gradient-4"
       gradientTransform="translate(-52.06342,-21.161401)" />
    <linearGradient
       id="linear-gradient-13"
       x1="171.77"
       y1="88.489998"
       x2="165.00999"
       y2="385.82001"
       xlink:href="#linear-gradient-4"
       gradientTransform="translate(-52.06342,-21.161401)" />
    <linearGradient
       id="linear-gradient-14"
       x1="144.75999"
       y1="213.89"
       x2="232.33"
       y2="309.06"
       xlink:href="#linear-gradient-4"
       gradientTransform="translate(-52.06342,-21.161401)" />
    <linearGradient
       id="linear-gradient-15"
       x1="163.53"
       y1="235.49001"
       x2="213.67"
       y2="305.67999"
       xlink:href="#linear-gradient"
       gradientTransform="translate(-52.06342,-21.161401)" />
    <linearGradient
       inkscape:collect="always"
       xlink:href="#linear-gradient"
       id="linearGradient288"
       gradientUnits="userSpaceOnUse"
       x1="183.83"
       y1="264.73001"
       x2="185.89999"
       y2="304.51999"
       gradientTransform="translate(-52.06342,-21.161401)" />
    <linearGradient
       inkscape:collect="always"
       xlink:href="#linear-gradient-4"
       id="linearGradient290"
       gradientUnits="userSpaceOnUse"
       gradientTransform="rotate(-142.1,1896.181,1861.3841)"
       x1="4330.77"
       y1="2142.8401"
       x2="4507.3301"
       y2="2228.49" />
  </defs>
  <title
     id="title35">15</title>
  <path
     d="m 328.24658,204.8886 c -2.56,10.09 -7,20.16 -10.89,29.14 -14.78,33.91 -39.72,57.1 -78.77,52.36 -18.82,-2.29 -37.24,-8.61 -56.19,-8 -18.13,0.56 -35.39,7.39 -52.61,13.08 -32,10.59 -67.43,17.37 -99.08,5.71 -31.64999957,-11.66 -56.26,-47.53 -45,-79.33 8.7600004,-24.82 36.15,-41.47 39,-67.63 3.75,-34 -36.49,-63.330001 -27.9999996,-96.510001 3.61000003,-13.97 15.2299996,-24.37 27.5399996,-31.87 28.28,-17.2900002 63.05,-23.0000002 95.54,-17.1200002 30.9,5.5500002 56.61,31.5700002 87.75,32.7700002 20.08,0.76 39.4,-10.65 59.4,-8.77 24.74,2.39 42.88,24.3 54.45,46.31 a 133.81,133.81 0 0 1 9.31,21.47 95.67,95.67 0 0 1 2.84,46.760001 c -3,16 -2.64,31 -3.1,47.41 a 65.06,65.06 0 0 1 -2.19,14.22 z"
     fill="#68e1fd"
     opacity="0.18"
     style="isolation:isolate"
     id="path37" />
  <path
     d="m 113.93658,269.6786 c -1.22,0.38 -2.59,1 -2.9,2.21 3.84,2.44 8.59,3 13.13,2.88 4.54,-0.12 9.07,-0.92 13.62,-0.95 6,0 12.76,1.07 17.58,-2.57 a 14.53,14.53 0 0 0 -7.13,-2.24 c 0.89,-5.6 -30.74,-0.44 -34.3,0.67 z"
     fill="url(#linear-gradient)"
     id="path39"
     style="fill:url(#linearGradient288)" />
  <path
     d="m 36.84658,202.9686 c -1.62,0 -3.86,0.82 -3.46,2.39 l 73.93,6 c 8.7,0.71 17.41,1.41 26.15,1.41 13.2,0 26.34,-1.62 39.51,-2.38 12.4,-0.71 24.82,-0.66 37.23,-0.6 11.49,0.06 25.62,2.13 36.78,-0.88 1.68,-0.45 3.37,-1.8 3.26,-3.53 -0.05,-0.8 -0.47,-1.63 -0.16,-2.37 a 2,2 0 0 1 0.82,-0.86 c 2.29,-1.41 5.21,-0.31 7.85,0.27 a 18.76,18.76 0 0 0 12.43,-1.58 3.89,3.89 0 0 0 1.76,-1.46 1.56,1.56 0 0 0 -0.38,-2.06 2.22,2.22 0 0 0 -1,-0.23 l -22.63,-1.76 a 5.22,5.22 0 0 0 -2.49,0.22 c -0.89,0.39 -0.84,1.43 -1.56,1.86 -1.17,0.69 -3.83,0.32 -5.17,0.4 -3.43,0.19 -6.86,0.38 -10.3,0.55 q -10.27,0.49 -20.58,0.83 c -14,0.47 -28.07,0.75 -42.1,1 -27.75,0.45 -55.51,0.69 -83.25,1.76 -15.55,0.58 -31.09,0.68 -46.64,1.02 z"
     fill="url(#linear-gradient-2)"
     id="path41"
     style="fill:url(#linear-gradient-2)" />
  <path
     d="m 93.69658,48.898599 a 5.69,5.69 0 0 0 -4,0.1 6.26,6.26 0 0 0 -3.68,3.5 0.74,0.74 0 0 1 -0.88,0.68 5.86,5.86 0 0 0 -3.94,1.51 c -1.26,1.15 -1.26,2.56 -1.43,4.21 a 1.48,1.48 0 0 0 -1.33,0 4.13,4.13 0 0 0 -1.11,0.8 4.58,4.58 0 0 0 -1.29,1.65 c -0.4,1.09 0.05,2.29 0.07,3.45 a 0.36,0.36 0 0 1 -0.09,0.29 0.33,0.33 0 0 1 -0.26,0 c -0.31,-0.06 -0.59,-0.22 -0.9,-0.25 a 1.56,1.56 0 0 0 -1.52,1.28 5.06,5.06 0 0 0 0.11,2.15 3.76,3.76 0 0 1 -0.06,2.13 4.55,4.55 0 0 1 -0.93,1.21 6.49,6.49 0 0 0 -2,3.83 3.05,3.05 0 0 0 0.54,2 2.06,2.06 0 0 0 1.85,0.84 c 1.66,-0.22 2.24,-2.55 3.82,-3.1 1.58,-0.55 3.35,-2.41 4.37,-3.88 0.82,-1.18 1.62,-2.55 3,-3 a 4.82,4.82 0 0 0 1.3,-0.48 2.5,2.5 0 0 0 0.66,-0.78 10.16,10.16 0 0 0 1.31,-2.74 c 0.5,-1.92 0,-4.08 0.93,-5.85 a 4.07,4.07 0 0 1 2.61,-2.06 c 0.47,-0.12 1,-0.15 1.43,-0.28 a 5.08,5.08 0 0 0 1.52,-0.73 4.76,4.76 0 0 0 2.32,-3.33 c 0.09,-1.41 -1.18,-2.67 -2.42,-3.15 z"
     fill="#ff681c"
     id="path43" />
  <path
     d="m 97.78658,51.268599 a 2.25,2.25 0 0 1 1.39,2.57 3.38,3.38 0 0 1 -0.75,1.13 l -1.81,2 -0.75,-2.78 a 2.25,2.25 0 0 0 -0.73,-1.35 1.7,1.7 0 0 0 -1.69,0 c -0.53,0.27 -1,0.69 -1.47,1 -0.13,0.08 -0.31,0.17 -0.45,0.09 -0.14,-0.08 -0.16,-0.37 -0.09,-0.57 0.86,-2.38 4.15,-3.04 6.35,-2.09 z"
     fill="#ff681c"
     id="path45" />
  <path
     d="m 99.01658,126.4986 a 5.11,5.11 0 0 0 0.9,2.61 c 0.81,1 2.16,1.5 3.28,2.23 a 0.88,0.88 0 0 1 0.46,0.59 0.62,0.62 0 0 1 -0.41,0.55 1.78,1.78 0 0 1 -0.73,0.05 28.75,28.75 0 0 0 -3.45,-0.33 c -0.58,0 -1.25,0.06 -1.62,-0.39 a 1.75,1.75 0 0 1 -0.23,-1.28 17.38,17.38 0 0 0 -0.4,-4.93 3.16,3.16 0 0 1 -0.13,-1.22 1.11,1.11 0 0 1 1.81,-0.63 c 0.66,0.57 0.44,1.98 0.52,2.75 z"
     fill="#fcbdba"
     id="path47" />
  <path
     d="m 80.51658,132.6886 a 5.2,5.2 0 0 0 0.34,2.74 c 0.59,1.19 1.82,1.9 2.77,2.84 a 0.84,0.84 0 0 1 0.33,0.67 0.6,0.6 0 0 1 -0.51,0.45 1.61,1.61 0 0 1 -0.72,-0.09 30.24,30.24 0 0 0 -3.32,-1 c -0.57,-0.1 -1.24,-0.2 -1.51,-0.7 a 1.78,1.78 0 0 1 0,-1.3 17.37,17.37 0 0 0 0.6,-4.92 3.14,3.14 0 0 1 0.12,-1.22 1.11,1.11 0 0 1 1.9,-0.25 c 0.57,0.67 0.07,2.01 0,2.78 z"
     fill="#fcbdba"
     id="path49" />
  <path
     d="m 76.87658,87.688599 c 0,0 9.54,14.160001 15.79,18.390001 a 20.13,20.13 0 0 0 0.09,4.25 c 0.32,2.29 1.43,4.3 1.79,6.55 l 1.2,7.57 c 0.05,0.34 0.15,0.75 0.48,0.87 a 1,1 0 0 0 0.61,0 l 2.64,-0.72 a 121.73,121.73 0 0 1 0.29,-13.64 30.07,30.07 0 0 0 0.14,-5.53 c -0.44,-4 -3.72,-7.570001 -6,-10.780001 -1.37,-1.94 -2.84,-4.84 -4.76,-6.31 -1.6,-1.22 -3.86,-0.64 -5.87,-0.44 a 13.64,13.64 0 0 1 -4.5,-0.32 2,2 0 0 0 -1.9,0.11 z"
     fill="#473f47"
     id="path51" />
  <path
     d="m 73.24658,87.598599 c 0,0 3.71,16.670001 8,22.890001 a 21.15,21.15 0 0 0 -1.47,4 19.71,19.71 0 0 0 -0.41,3.43 l -0.86,13.92 a 11.13,11.13 0 0 0 3.93,-0.5 l 4.88,-12.27 a 17,17 0 0 0 1.62,-6.23 c 0,-4.18 -4,-19.440001 -4.47,-20.210001 -1.05,-1.73 -3.36,-2 -5.3,-2.56 a 13.38,13.38 0 0 1 -4.07,-1.94 c -0.61,-0.38 -1.16,-0.75 -1.85,-0.53 z"
     fill="#473f47"
     id="path53" />
  <path
     d="m 107.49658,74.618599 a 11.92,11.92 0 0 0 6.51,1 4.61,4.61 0 0 1 2,-0.1 c -0.29,0.41 -0.57,1 -0.16,1.35 a 0.87,0.87 0 0 0 0.42,0.14 3.47,3.47 0 0 0 1.6,-0.17 1.64,1.64 0 0 1 0.78,-0.17 0.93,0.93 0 0 1 0.68,1.12 2,2 0 0 1 -0.88,1.14 4.64,4.64 0 0 1 -4.68,0.26 c -0.42,-0.23 -0.81,-0.52 -1.24,-0.75 a 10,10 0 0 0 -2.6,-0.78 53.28,53.28 0 0 1 -7.73,-2.22 2.89,2.89 0 0 1 -1.83,-1.36 c -0.51,-1.26 0.43,-3.37 1.93,-2.55 1.74,1.01 3.31,2.31 5.2,3.09 z"
     fill="#fcbdba"
     id="path55" />
  <path
     d="m 95.07658,67.438599 a 27.92,27.92 0 0 0 9.76,4 c 0.15,0 0.33,0.1 0.37,0.25 a 0.39,0.39 0 0 1 -0.07,0.29 17.93,17.93 0 0 1 -2.67,3.95 1.24,1.24 0 0 1 -0.43,0.36 1.28,1.28 0 0 1 -1,-0.12 q -3.37,-1.35 -6.6,-3 a 14.22,14.22 0 0 1 -5,-3.67 5,5 0 0 1 -1.16,-2.9 c 0,-1.18 1.08,-3.3 2.57,-2.72 0.67,0.26 1.26,1.09 1.77,1.56 a 25.81,25.81 0 0 0 2.46,2 z"
     fill="#68e1fd"
     id="path57" />
  <path
     d="m 95.07658,67.438599 a 27.92,27.92 0 0 0 9.76,4 c 0.15,0 0.33,0.1 0.37,0.25 a 0.39,0.39 0 0 1 -0.07,0.29 17.93,17.93 0 0 1 -2.67,3.95 1.24,1.24 0 0 1 -0.43,0.36 1.28,1.28 0 0 1 -1,-0.12 q -3.37,-1.35 -6.6,-3 a 14.22,14.22 0 0 1 -5,-3.67 5,5 0 0 1 -1.16,-2.9 c 0,-1.18 1.08,-3.3 2.57,-2.72 0.67,0.26 1.26,1.09 1.77,1.56 a 25.81,25.81 0 0 0 2.46,2 z"
     fill="url(#linear-gradient-3)"
     id="path59"
     style="fill:url(#linear-gradient-3)" />
  <path
     d="m 136.93658,61.478599 a 4.28,4.28 0 0 1 -4,6.89 c 0,0 -4.73,0.11 -3.66,4.57 l 9,11.46 -11.46,9 c -4.46,1.07 -4.57,-3.66 -4.57,-3.66 a 4.29,4.29 0 1 0 -4.64,3.66 c 4.07,1.34 2.49,5.3 2.49,5.3 l -11.46,9.000001 -23.29,-29.570001 11.35,-9 c 4.46,-1.07 4.57,3.66 4.57,3.66 a 4.28,4.28 0 1 0 7.6,-2 4.34,4.34 0 0 0 -3,-1.62 c -4.03,-1.33 -2.45,-5.33 -2.45,-5.33 l 11.57,-9.13 9,11.47 c 0,0 4,1.58 5.3,-2.49 a 4.29,4.29 0 0 1 7.65,-2.21 z"
     fill="#68e1fd"
     id="path61" />
  <path
     d="m 136.93658,61.478599 a 4.28,4.28 0 0 1 -4,6.89 c 0,0 -4.73,0.11 -3.66,4.57 l 9,11.46 -11.46,9 c -4.46,1.07 -4.57,-3.66 -4.57,-3.66 a 4.29,4.29 0 1 0 -4.64,3.66 c 4.07,1.34 2.49,5.3 2.49,5.3 l -11.46,9.000001 -23.29,-29.570001 11.35,-9 c 4.46,-1.07 4.57,3.66 4.57,3.66 a 4.28,4.28 0 1 0 7.6,-2 4.34,4.34 0 0 0 -3,-1.62 c -4.03,-1.33 -2.45,-5.33 -2.45,-5.33 l 11.57,-9.13 9,11.47 c 0,0 4,1.58 5.3,-2.49 a 4.29,4.29 0 0 1 7.65,-2.21 z"
     fill="url(#linear-gradient-4)"
     id="path63"
     style="fill:url(#linearGradient290)" />
  <path
     d="m 99.06658,87.558599 c 2.45,2 5,4.15 8,4.67 a 4.44,4.44 0 0 0 3.39,-0.61 1.07,1.07 0 0 0 0.52,-1 c -0.11,-0.49 -0.71,-0.66 -1.2,-0.75 a 16.55,16.55 0 0 1 -6.46,-2.32 18.7,18.7 0 0 1 -2.07,-1.7 l -4.87,-4.34 a 0.63,0.63 0 0 0 -0.49,-0.23 c -0.2,0 -0.32,0.23 -0.41,0.41 a 8.68,8.68 0 0 0 -0.68,1.93 c -0.15,0.73 0,0.83 0.63,1.25 q 1.89,1.28 3.64,2.69 z"
     fill="url(#linear-gradient-5)"
     id="path65"
     style="fill:url(#linear-gradient-5)" />
  <path
     d="m 101.32658,83.898599 a 11.89,11.89 0 0 0 6,2.8 4.54,4.54 0 0 1 1.91,0.45 c -0.41,0.31 -0.85,0.84 -0.54,1.25 a 0.87,0.87 0 0 0 0.37,0.25 3.55,3.55 0 0 0 1.58,0.28 1.79,1.79 0 0 1 0.8,0.06 0.92,0.92 0 0 1 0.33,1.26 1.91,1.91 0 0 1 -1.16,0.85 4.6,4.6 0 0 1 -4.56,-1.06 c -0.35,-0.34 -0.64,-0.73 -1,-1.06 a 9.77,9.77 0 0 0 -2.28,-1.47 53.36,53.36 0 0 1 -6.8,-4.3 2.9,2.9 0 0 1 -1.38,-1.81 c -0.14,-1.36 1.35,-3.13 2.57,-1.91 1.42,1.44 2.57,3.09 4.16,4.41 z"
     fill="#fcbdba"
     id="path67" />
  <path
     d="m 73.24658,89.738599 a 1.84,1.84 0 0 0 0.66,0.5 24.29,24.29 0 0 0 3.13,1.5 12.55,12.55 0 0 0 8.65,-0.07 11.54,11.54 0 0 0 3.1,-1.69 3,3 0 0 0 0.88,-0.93 3.38,3.38 0 0 0 0.24,-1.92 c -0.25,-3.37 -0.62,-6.85 0,-10.12 a 14,14 0 0 1 1,-3.26 25.28,25.28 0 0 0 2,-4.47 6.66,6.66 0 0 0 -1.39,-5.44 c -1.3,-1.66 -3.68,-3.13 -5.78,-2.38 a 13.23,13.23 0 0 0 -6.05,4.62 30.18,30.18 0 0 0 -3.9,7.65 c -0.4,1.07 -0.79,2.14 -1.1,3.24 a 47.07,47.07 0 0 0 -1.28,8.11 c -0.11,1.14 -0.21,2.28 -0.33,3.42 a 1.79,1.79 0 0 0 0.17,1.24 z"
     fill="#68e1fd"
     id="path69" />
  <path
     d="m 85.68658,91.668599 a 11.54,11.54 0 0 0 3.1,-1.69 3,3 0 0 0 0.88,-0.93 3.38,3.38 0 0 0 0.24,-1.92 c -0.25,-3.37 -0.62,-6.85 0,-10.12 -0.4,-0.4 -0.85,-0.76 -1.29,-1.12 -1,-0.82 -2.44,-2.44 -3.89,-2.33 0.35,1.53 0.63,3.09 0.84,4.65 0.21,1.56 0.13,3.18 0.38,4.72 a 28.48,28.48 0 0 1 -0.19,8.19 2.64,2.64 0 0 0 -0.07,0.55 z"
     fill="url(#linear-gradient-6)"
     id="path71"
     style="fill:url(#linear-gradient-6)" />
  <path
     d="m 97.85658,78.648599 a 0.66,0.66 0 0 1 0.33,0.39 0.65,0.65 0 0 1 -0.17,0.45 12.67,12.67 0 0 1 -3.36,3.25 0.85,0.85 0 0 1 -0.44,0.18 0.83,0.83 0 0 1 -0.49,-0.23 c -2,-1.53 -4,-3 -5.95,-4.6 a 14.84,14.84 0 0 1 -3.3,-3.22 13.88,13.88 0 0 1 -1.54,-3.59 c -1.19,-3.75 2.41,-5.38 4.82,-2.63 3.18,3.64 6.08,7.19 10.1,10 z"
     fill="#68e1fd"
     id="path73" />
  <path
     d="m 97.36658,131.9486 a 0.76,0.76 0 0 1 0.1,-0.76 c 0.22,-0.21 0.58,-0.11 0.86,0 a 10.4,10.4 0 0 0 1.93,0.71 2.84,2.84 0 0 0 2,-0.21 c 0.34,-0.2 0.67,-0.5 1.06,-0.47 a 1.37,1.37 0 0 1 0.55,0.21 6.74,6.74 0 0 0 1.91,0.65 1.8,1.8 0 0 1 0.79,0.26 0.39,0.39 0 0 1 0.15,0.21 c 0,0.2 -0.19,0.35 -0.38,0.42 -2.08,0.81 -4.41,0.51 -6.63,0.27 a 2.69,2.69 0 0 0 -0.75,0 c -0.37,0.07 -0.82,0.26 -1.13,0 a 2.61,2.61 0 0 1 -0.46,-1.29 z"
     fill="#473f47"
     id="path75" />
  <path
     d="m 77.61658,137.6486 a 0.8,0.8 0 0 1 0.19,-0.74 c 0.25,-0.18 0.59,0 0.86,0.11 a 11.77,11.77 0 0 0 1.83,0.95 2.87,2.87 0 0 0 2,0 c 0.36,-0.15 0.72,-0.41 1.11,-0.33 a 1.52,1.52 0 0 1 0.52,0.27 6.49,6.49 0 0 0 1.81,0.93 1.78,1.78 0 0 1 0.76,0.36 0.31,0.31 0 0 1 0.11,0.22 c 0,0.2 -0.22,0.32 -0.42,0.37 -2.17,0.55 -4.44,0 -6.61,-0.55 a 2.78,2.78 0 0 0 -0.75,-0.11 c -0.37,0 -0.84,0.16 -1.12,-0.18 a 2.73,2.73 0 0 1 -0.29,-1.3 z"
     fill="#473f47"
     id="path77" />
  <path
     d="m 96.13658,58.128599 c -0.17,0.55 -0.34,1.1 -0.48,1.66 a 17.15,17.15 0 0 1 -0.66,2.46 2.94,2.94 0 0 1 -1.72,1.76 1.65,1.65 0 0 1 -2.05,-1 c -0.48,0.11 -0.65,0.7 -0.64,1.2 a 2.14,2.14 0 0 1 -0.26,1.42 c -0.45,0.53 -1.33,0.31 -1.92,-0.07 a 5.44,5.44 0 0 1 -2.29,-5.6 c 0.49,-2.23 0.47,-4.9 1.74,-6.83 a 6,6 0 0 1 1.71,-1.63 4.41,4.41 0 0 1 2,-0.81 5.51,5.51 0 0 1 1.51,0.12 c 2.12,0.36 3.92,0.67 3.93,3.1 a 13.67,13.67 0 0 1 -0.87,4.22 z"
     fill="#fcbdba"
     id="path79" />
  <path
     d="m 93.52658,54.198599 c -0.33,0 -0.71,-0.08 -1,0.12 -0.29,0.2 -0.31,0.65 -0.49,1 -0.35,0.65 -1.24,0.74 -1.91,1.08 a 2.5,2.5 0 0 0 -1.32,2.25 1.52,1.52 0 0 0 -0.21,-0.84 0.53,0.53 0 0 0 -0.76,-0.13 0.64,0.64 0 0 0 -0.15,0.38 1.68,1.68 0 0 0 0.66,1.5 2.5,2.5 0 0 1 -2.29,1.41 1.28,1.28 0 0 1 -0.83,-0.28 1.34,1.34 0 0 1 -0.32,-0.54 c -0.57,-1.6 0.3,-3.31 0.51,-5 a 6.89,6.89 0 0 1 0.29,-1.76 3.86,3.86 0 0 1 0.75,-1.09 7.62,7.62 0 0 1 3.56,-2.39 c 1.34,-0.37 4,-0.18 5.05,0.88 a 2.11,2.11 0 0 1 -1.54,3.41 z"
     fill="#ff681c"
     id="path81" />
  <path
     d="m 92.93658,206.0086 v -18.71 c 2.46,-5.34 7.31,-1.7 7.31,-1.7 a 5.49,5.49 0 1 0 0,-7.58 c -4.58,3 -7.31,-1.7 -7.31,-1.7 v -18.72 h 18.71 c 0,0 4.74,-2.73 1.7,-7.31 a 5.49,5.49 0 1 1 7.58,0 c 0,0 -3.64,4.85 1.7,7.31 h 18.71 v 48.41 z"
     fill="url(#linear-gradient-7)"
     id="path83"
     style="fill:url(#linear-gradient-7)" />
  <path
     d="m 57.08658,205.0086 h -3.38 l 34.6,-91.36 a 1.58,1.58 0 0 1 1.47,-1 v 0 a 1.58,1.58 0 0 1 1.48,2.14 z"
     fill="#68e1fd"
     id="path85" />
  <polygon
     points="126.04,110.14 129.42,110.14 94.44,202.52 91.06,202.52 "
     fill="#68e1fd"
     id="polygon87"
     transform="translate(-17.08342,2.4885988)" />
  <polygon
     points="103.6,122.19 121.48,122.19 120.58,124.57 102.7,124.57 "
     fill="#68e1fd"
     id="polygon89"
     transform="translate(-17.08342,2.4885988)" />
  <polygon
     points="98.11,136.7 115.99,136.7 115.08,139.08 97.2,139.08 "
     fill="#68e1fd"
     id="polygon91"
     transform="translate(-17.08342,2.4885988)" />
  <polygon
     points="92.61,151.2 110.49,151.2 109.59,153.59 91.71,153.59 "
     fill="#68e1fd"
     id="polygon93"
     transform="translate(-17.08342,2.4885988)" />
  <polygon
     points="87.12,165.71 105,165.71 104.1,168.09 86.22,168.09 "
     fill="#68e1fd"
     id="polygon95"
     transform="translate(-17.08342,2.4885988)" />
  <polygon
     points="81.63,180.22 99.5,180.22 98.6,182.6 80.72,182.6 "
     fill="#68e1fd"
     id="polygon97"
     transform="translate(-17.08342,2.4885988)" />
  <path
     d="m 86.60658,127.0586 -4.6,12.13 h 16.93 l -0.9,2.38 h -16.9 l -4.59,12.12 h 16.89 l -0.9,2.38 h -16.92 l -4.59,12.13 h 16.91 l -0.9,2.38 h -16.91 l -4.6,12.13 h 16.9 l -0.91,2.38 h -16.89 l -7.54,19.92 h -3.38 l 34.6,-91.36 a 1.58,1.58 0 0 1 3,0.56 1.62,1.62 0 0 1 -0.1,0.56 l -3.75,9.91 h 16.89 l -0.9,2.38 z"
     fill="url(#linear-gradient-8)"
     id="path99"
     style="fill:url(#linear-gradient-8)" />
  <polygon
     points="126.04,110.14 129.42,110.14 94.44,202.52 91.06,202.52 "
     fill="url(#linear-gradient-9)"
     id="polygon101"
     style="fill:url(#linear-gradient-9)"
     transform="translate(-17.08342,2.4885988)" />
  <path
     d="m 245.04658,126.0186 a 3.87,3.87 0 0 1 -1.74,0.84 4,4 0 0 1 -1.72,-0.31 l -8.32,-2.77 a 3.15,3.15 0 0 0 -0.68,4.24 6.15,6.15 0 0 0 3.05,1.82 l 5.71,2.05 a 9.81,9.81 0 0 0 8.41,-0.05 c 1.7,-0.57 3.57,-1.28 4.39,-2.88 0.82,-1.6 0.22,-3.72 0.46,-5.59 a 24,24 0 0 0 0.67,-3.62 c 0,-1.05 -0.86,-2.63 -2.11,-2.41 -1.08,0.19 -1.8,2.07 -2.37,2.86 a 26.76,26.76 0 0 1 -5.75,5.82 z"
     fill="white"
     id="path103" />
  <path
     d="m 232.22658,123.3086 a 1.73,1.73 0 0 0 -0.39,-0.6 0.61,0.61 0 0 0 -0.66,-0.14 0.68,0.68 0 0 0 -0.32,0.65 0.34,0.34 0 0 1 -0.06,0.26 c -0.06,0.06 -0.17,0 -0.26,0 -0.94,-0.18 -1.9,-0.32 -2.86,-0.42 a 0.58,0.58 0 0 0 -0.65,0.79 2.88,2.88 0 0 0 0.47,0.88 c 0.49,0.8 0.67,1.85 1.45,2.37 a 2.54,2.54 0 0 0 1.58,0.33 c 0.55,0 1.09,-0.13 1.64,-0.1 a 1.72,1.72 0 0 0 1.08,-0.12 0.93,0.93 0 0 0 0.37,-0.82 3.13,3.13 0 0 0 -0.51,-1.38 c -0.31,-0.54 -0.6,-1.12 -0.88,-1.7 z"
     fill="#fdb9a9"
     id="path105" />
  <path
     d="m 255.42658,185.9386 c -3.18,-0.72 -2.56,3.79 -3.4,5.47 a 8.81,8.81 0 0 1 -2,2.26 4.08,4.08 0 0 0 -1.43,2.57 0.93,0.93 0 0 0 0.11,0.54 1.09,1.09 0 0 0 0.64,0.38 7.33,7.33 0 0 0 5.45,-0.54 4.23,4.23 0 0 0 1.87,-1.73 6,6 0 0 0 0.48,-2.58 c 0.1,-1.88 0.94,-5.78 -1.72,-6.37 z"
     fill="#fdb9a9"
     id="path107" />
  <path
     d="m 252.60658,195.2386 c 0,0 -9.06,0.39 -5.22,3.23 3.84,2.84 9.57,-0.69 10.13,-1.34 0.56,-0.65 0.1,-1.76 0.1,-1.76 z"
     fill="#68e1fd"
     id="path109" />
  <path
     d="m 257.11658,196.4886 c -0.8,1 -5.06,2.31 -6.95,2.17 -1.89,-0.14 -3.58,-1 -3.39,-2.23 0.19,-1.23 3.51,-4.06 4.14,-4.05 0.63,0.01 1.12,1.46 2.38,1.76 a 3.35,3.35 0 0 0 3.07,-1.1 0.84,0.84 0 0 1 1,-0.27 4,4 0 0 1 -0.25,3.72 z"
     fill="white"
     id="path111" />
  <path
     d="m 266.35658,187.7186 c -3.18,-0.74 -2.56,3.78 -3.4,5.45 a 8.85,8.85 0 0 1 -2,2.27 4.06,4.06 0 0 0 -1.43,2.56 1,1 0 0 0 0.11,0.55 1.14,1.14 0 0 0 0.64,0.38 7.37,7.37 0 0 0 5.45,-0.54 4.31,4.31 0 0 0 1.87,-1.74 6,6 0 0 0 0.48,-2.57 c 0.1,-1.9 0.94,-5.79 -1.72,-6.36 z"
     fill="#fdb9a9"
     id="path113" />
  <path
     d="m 263.53658,196.9786 c 0,0 -9.06,0.38 -5.22,3.24 3.84,2.86 9.57,-0.7 10.13,-1.35 0.56,-0.65 0.1,-1.76 0.1,-1.76 z"
     fill="#68e1fd"
     id="path115" />
  <path
     d="m 268.04658,198.2086 c -0.8,1 -5.06,2.32 -6.95,2.18 -1.89,-0.14 -3.58,-1 -3.39,-2.23 0.19,-1.23 3.51,-4.06 4.14,-4 0.63,0.06 1.12,1.46 2.38,1.75 a 3.34,3.34 0 0 0 3.07,-1.09 0.83,0.83 0 0 1 1,-0.27 4,4 0 0 1 -0.25,3.66 z"
     fill="white"
     id="path117" />
  <path
     d="m 258.14658,146.5886 4.26,44.84 6.14,-0.76 c 2.43,-10.94 1.83,-43.67 1.83,-43.67 z"
     fill="#473f47"
     id="path119" />
  <path
     d="m 262.40658,145.3786 -4.26,44.83 -6.16,-0.76 c -3.51,-28.36 -0.61,-46 -0.61,-46 z"
     fill="#473f47"
     id="path121" />
  <path
     d="m 251.93658,129.1686 c -0.08,-0.82 -0.3,-1.64 -0.38,-2.48 a 18.79,18.79 0 0 1 0.09,-5.08 19.24,19.24 0 0 1 1.61,-5.18 c 0.7,-1.42 2,-2 3.42,-2.74 a 12.3,12.3 0 0 1 3.87,-1.31 9.73,9.73 0 0 1 2.85,0.16 c 2.9,0.55 6.71,2 8.69,4.33 1.49,1.71 1.66,4.17 1.71,6.44 0.06,3.13 0,6.26 -0.2,9.39 0,0.45 -0.05,0.9 -0.09,1.36 a 49.84,49.84 0 0 1 -1.57,10.31 4.09,4.09 0 0 1 -1.59,2.64 c -2.27,1.32 -5.73,0.59 -8.18,0.25 -3.25,-0.46 -6.58,-0.94 -9.46,-2.52 a 2.67,2.67 0 0 1 -1.36,-1.31 3.57,3.57 0 0 1 0.27,-2.19 c 1,-3.2 0.22,-6.57 0.22,-9.84 0,-0.59 0.07,-1.19 0.07,-1.79 0.03,-0.14 0.03,-0.29 0.03,-0.44 z"
     fill="white"
     id="path123" />
  <path
     d="m 262.13658,134.9586 a 7.65,7.65 0 0 0 2.51,1 c 2.65,0.77 5.37,1.18 8,2 a 1,1 0 0 1 0.48,0.24 0.89,0.89 0 0 1 0.14,0.56 7,7 0 0 1 -0.34,2.27 1.51,1.51 0 0 1 -0.59,0.91 1.74,1.74 0 0 1 -1.19,0 l -9.91,-2.1 a 8.37,8.37 0 0 0 -2.17,-0.26 10.2,10.2 0 0 0 -2.53,0.63 24.16,24.16 0 0 1 -4.67,1 36.69,36.69 0 0 1 0.69,-5.63 7.41,7.41 0 0 1 0.62,-1.58 7.65,7.65 0 0 1 1.12,-1.36 c 1.6,-1.67 2.71,-3.76 4.33,-5.43 0.85,-0.88 1.91,-1.44 2.66,-2.38 0.3,-0.38 2.9,-3.65 2.65,-4 0.5,0.62 1.74,0 2.19,0.64 0.28,0.4 0,0.94 -0.26,1.35 a 31.89,31.89 0 0 0 -3.95,10.4 c -0.2,0.85 -0.5,1.15 0.22,1.74 z"
     fill="url(#linear-gradient-10)"
     id="path125"
     style="fill:url(#linear-gradient-10)" />
  <path
     d="m 254.05658,93.908599 a 5.49,5.49 0 0 1 -1.88,10.000001 c 0,0 -5.68,2.14 -2.49,7.08 l 15.78,10.05 -10,15.78 c -4.94,3.19 -7.08,-2.49 -7.08,-2.49 a 5.48,5.48 0 1 0 -4.07,6.4 c 5.5,-0.11 5.26,5.36 5.26,5.36 l -10,15.78 -40.84,-26 9.95,-15.64 c 4.94,-3.18 7.08,2.49 7.08,2.49 a 5.49,5.49 0 1 0 4.07,-6.39 c -5.5,0.11 -5.25,-5.36 -5.25,-5.36 l 10.14,-15.940001 15.79,10.060001 c 0,0 5.47,0.24 5.36,-5.260001 a 5.56,5.56 0 0 1 0.7,-4.27 5.5,5.5 0 0 1 7.48,-1.65 z"
     fill="#68e1fd"
     id="path127" />
  <path
     d="m 278.40658,126.2386 a 12,12 0 0 1 1,2.25 10.15,10.15 0 0 1 0.1,4.18 7.53,7.53 0 0 1 -1.41,3.76 c -1.69,2 -4.71,2.19 -7.33,1.94 a 42.13,42.13 0 0 1 -8.76,-1.76 1.89,1.89 0 0 1 -0.73,-0.34 2,2 0 0 1 -0.46,-0.92 14.39,14.39 0 0 1 -0.43,-2.53 c 3,-0.86 6.32,-0.16 9.45,-0.62 a 1.34,1.34 0 0 0 1.26,-1.78 c -0.15,-1.76 -1.24,-3.3 -1.75,-5 a 7.94,7.94 0 0 1 0.12,-5 4.11,4.11 0 0 1 2.28,-2.57 c 1.25,-0.41 1.73,0.57 2.42,1.49 a 52.68,52.68 0 0 1 4.24,6.9 z"
     fill="white"
     id="path129" />
  <path
     d="m 259.13658,131.6986 a 0.84,0.84 0 0 0 -0.41,-0.18 0.65,0.65 0 0 0 -0.53,0.39 6.09,6.09 0 0 1 -0.3,0.63 1.49,1.49 0 0 1 -1.2,0.49 6.76,6.76 0 0 0 -1.35,0 1,1 0 0 0 -0.45,0.22 0.92,0.92 0 0 0 -0.25,0.44 2.1,2.1 0 0 0 0.54,1.92 4.34,4.34 0 0 0 1.75,1.08 3.72,3.72 0 0 0 2.15,0.26 4.41,4.41 0 0 0 1.13,-0.51 l 1.46,-0.81 a 1,1 0 0 0 0.32,-0.24 c 0.32,-0.4 -0.12,-1.6 -0.41,-2 a 10.22,10.22 0 0 0 -2.45,-1.69 z"
     fill="#fdb9a9"
     id="path131" />
  <path
     d="m 258.15658,107.8386 c 0,-0.86 0.07,-1.73 0.16,-2.57 0.09,-0.84 0.2,-1.5 0.34,-2.24 a 1.52,1.52 0 0 1 0.58,-1.13 7.09,7.09 0 0 1 3.83,-1 3.68,3.68 0 0 1 2.79,1 3.64,3.64 0 0 1 0.77,2 22.9,22.9 0 0 1 -0.56,5.63 23.79,23.79 0 0 0 -0.23,4.38 5.16,5.16 0 0 1 -2.37,0.84 3.86,3.86 0 0 1 -1.16,-0.19 0.89,0.89 0 0 1 -0.52,-0.34 0.91,0.91 0 0 1 0,-0.49 3.57,3.57 0 0 0 0,-0.46 v 0 a 14.69,14.69 0 0 0 -0.05,-2.57 0.26,0.26 0 0 0 -0.08,-0.2 0.25,0.25 0 0 0 -0.17,0 h -0.24 a 6.08,6.08 0 0 1 -1.28,0 2.12,2.12 0 0 1 -1.34,-0.66 2.78,2.78 0 0 1 -0.47,-2 z"
     fill="#fdb9a9"
     id="path133" />
  <path
     d="m 259.93658,102.3586 c -0.3,0 -0.57,0.16 -0.83,0 a 3.77,3.77 0 0 1 -0.71,-0.78 3.31,3.31 0 0 1 -0.66,-2.210001 1.94,1.94 0 0 1 0.34,-1 2.11,2.11 0 0 1 0.83,-0.61 3.89,3.89 0 0 1 2,-0.39 4.74,4.74 0 0 1 2.66,1.27 1.46,1.46 0 0 0 0.55,0.36 1.41,1.41 0 0 0 0.58,0 4.92,4.92 0 0 1 3.51,1.080001 c 0.56,0.49 1,1.12 1.58,1.55 0.58,0.43 1.15,0.59 1.45,1.14 a 1.51,1.51 0 0 1 -0.17,1.6 2.5,2.5 0 0 1 -1.45,0.84 1.31,1.31 0 0 1 -0.78,1.7 2.05,2.05 0 0 0 -0.66,0.22 c -0.14,0.11 -0.2,0.28 -0.34,0.39 -0.33,0.27 -0.76,0.36 -0.9,0.82 a 2.32,2.32 0 0 0 -0.05,0.59 1.35,1.35 0 0 1 -0.34,0.79 c -0.13,0.14 -0.36,0.49 -0.55,0.53 -0.19,0.04 -0.36,-0.19 -0.42,-0.39 a 3.89,3.89 0 0 1 0.17,-2.56 2.74,2.74 0 0 0 0.42,-1.3 c 0,-0.46 -0.66,-0.82 -1,-0.55 -0.34,0.27 -0.36,0.92 -0.72,0.79 a 2.85,2.85 0 0 0 -1.38,-3.46 6.66,6.66 0 0 0 -2.08,-0.29 5.13,5.13 0 0 0 -1,-0.11 z"
     fill="#473f47"
     id="path135" />
  <path
     d="m 261.24658,110.5186 a 15.13,15.13 0 0 0 2.9,-0.86 3.45,3.45 0 0 1 -2.37,3.65 v 0 a 14.69,14.69 0 0 0 0,-2.57 0.3,0.3 0 0 0 -0.08,-0.2 0.25,0.25 0 0 0 -0.17,0 h -0.23 z"
     fill="#de9f93"
     id="path137" />
  <path
     d="m 229.93658,117.7086 a 1.68,1.68 0 0 1 0.21,1.51 4.92,4.92 0 0 1 -0.75,1.39 l -1.57,2.32 c -0.41,0.6 -1,1.28 -1.69,1.22 -1.72,-0.12 -2.48,-4.58 -1.84,-5.9 0.74,-1.65 4.51,-1.95 5.64,-0.54 z"
     fill="#fdb9a9"
     id="path139" />
  <path
     d="m 238.03658,157.5986 v 48.41 h -48.4 v -18.72 c 0,0 2.73,-4.74 7.31,-1.7 a 5.49,5.49 0 1 0 0,-7.58 c 0,0 -4.85,3.64 -7.31,-1.7 v -18.71 h 18.71 c 5.34,-2.46 1.7,-7.31 1.7,-7.31 a 5.49,5.49 0 1 1 7.58,0 c -3,4.58 1.7,7.31 1.7,7.31 z"
     fill="#68e1fd"
     id="path141" />
  <path
     d="m 238.03658,157.5986 v 48.41 h -48.4 v -18.72 c 0,0 2.73,-4.74 7.31,-1.7 a 5.49,5.49 0 1 0 0,-7.58 c 0,0 -4.85,3.64 -7.31,-1.7 v -18.71 h 18.71 c 5.34,-2.46 1.7,-7.31 1.7,-7.31 a 5.49,5.49 0 1 1 7.58,0 c -3,4.58 1.7,7.31 1.7,7.31 z"
     fill="url(#linear-gradient-11)"
     id="path143"
     style="fill:url(#linear-gradient-11)" />
  <path
     d="m 158.01658,133.3886 a 5.5,5.5 0 0 1 -9.47,3.79 c -4.58,-3 -7.31,1.7 -7.31,1.7 v 18.72 h 48.4 v -48.41 h -48.4 v 18.71 c 2.46,5.34 7.31,1.7 7.31,1.7 a 5.5,5.5 0 0 1 9.47,3.79 z"
     fill="#68e1fd"
     id="path145" />
  <path
     d="m 161.64658,164.9086 a 5.49,5.49 0 1 0 7.58,0 c 0,0 -3.64,-4.85 1.7,-7.31 h -10.99 c 0,0 4.75,2.73 1.71,7.31 z"
     fill="#68e1fd"
     id="path147" />
  <path
     d="m 141.23658,109.1886 v 18.71 c 2.46,5.34 7.31,1.7 7.31,1.7 a 5.49,5.49 0 1 1 0,7.58 c -4.58,-3 -7.31,1.7 -7.31,1.7 v 18.72 h 18.7 c 0,0 4.74,2.73 1.7,7.31 a 5.49,5.49 0 1 0 7.58,0 c 0,0 -3.64,-4.85 1.7,-7.31 h 18.72 v -48.41 z"
     fill="url(#linear-gradient-12)"
     id="path149"
     style="fill:url(#linear-gradient-12)" />
  <path
     d="m 141.23658,157.5986 v 48.41 h 48.4 v -18.72 c 0,0 2.73,-4.74 7.31,-1.7 a 5.49,5.49 0 1 0 0,-7.58 c 0,0 -4.85,3.64 -7.31,-1.7 v -18.71 h -18.7 c -5.34,2.46 -1.7,7.31 -1.7,7.31 a 5.49,5.49 0 1 1 -7.58,0 c 3,-4.58 -1.7,-7.31 -1.7,-7.31 z"
     fill="#68e1fd"
     id="path151" />
  <path
     d="m 92.93658,206.0086 v -18.71 c 2.46,-5.34 7.31,-1.7 7.31,-1.7 a 5.49,5.49 0 1 0 0,-7.58 c -4.58,3 -7.31,-1.7 -7.31,-1.7 v -18.72 h 18.71 c 0,0 4.74,-2.73 1.7,-7.31 a 5.49,5.49 0 1 1 7.58,0 c 0,0 -3.64,4.85 1.7,7.31 h 18.71 v 48.41 z"
     fill="#68e1fd"
     id="path153" />
  <path
     d="m 92.93658,206.0086 v -18.71 c 2.46,-5.34 7.31,-1.7 7.31,-1.7 a 5.49,5.49 0 1 0 0,-7.58 c -4.58,3 -7.31,-1.7 -7.31,-1.7 v -18.72 h 18.71 c 0,0 4.74,-2.73 1.7,-7.31 a 5.49,5.49 0 1 1 7.58,0 c 0,0 -3.64,4.85 1.7,7.31 h 18.71 v 48.41 z"
     fill="url(#linear-gradient-13)"
     id="path155"
     style="fill:url(#linear-gradient-13)" />
  <path
     d="m 158.07658,133.3986 a 5.5,5.5 0 0 1 -9.47,3.79 c 0,0 -4.85,-3.64 -7.31,1.7 v 18.71 h -18.71 c -5.34,-2.46 -1.7,-7.31 -1.7,-7.31 a 5.49,5.49 0 1 0 -7.58,0 c 3,4.58 -1.7,7.31 -1.7,7.31 h -18.67 v -48.41 h 18.53 c 5.34,2.46 1.7,7.31 1.7,7.31 a 5.49,5.49 0 1 0 7.58,0 c -3,-4.58 1.7,-7.31 1.7,-7.31 h 18.89 v 18.72 c 0,0 2.73,4.74 7.31,1.7 a 5.5,5.5 0 0 1 9.47,3.79 z"
     fill="#68e1fd"
     id="path157" />
  <path
     d="m 169.93658,226.4186 a 5.49,5.49 0 0 1 -9.41,3.93 c 0,0 -4.9,-3.57 -7.28,1.8 l 0.27,18.71 -18.71,0.27 c -5.38,-2.38 -1.81,-7.28 -1.81,-7.28 a 5.48,5.48 0 1 0 -7.58,0.11 c 3.11,4.53 -1.59,7.33 -1.59,7.33 l -18.71,0.27 -0.7,-48.41 18.53,-0.26 c 5.38,2.38 1.81,7.28 1.81,7.28 a 5.48,5.48 0 1 0 7.58,-0.11 c -3.11,-4.53 1.59,-7.33 1.59,-7.33 l 18.89,-0.27 0.27,18.72 c 0,0 2.8,4.7 7.33,1.59 a 5.57,5.57 0 0 1 4,-1.76 5.48,5.48 0 0 1 5.52,5.41 z"
     fill="#68e1fd"
     id="path159" />
  <path
     d="m 111.19658,203.3286 c -0.67,0.74 -1.19,2.37 -0.13,3.06 a 2.86,2.86 0 0 0 1.23,0.34 l 5.66,0.69 c -0.17,0 2.79,33.35 3.95,40.44 0.14,0.84 0.49,1.89 1.34,2 a 1.63,1.63 0 0 0 1.27,-0.74 8.65,8.65 0 0 0 1.35,-4.27 243.47,243.47 0 0 0 2,-32.83 c 0,-2.17 -0.08,-4.44 -1.16,-6.33 a 8.84,8.84 0 0 0 -5.93,-3.92 c -3.23,-0.73 -7.23,-1.06 -9.58,1.56 z"
     fill="url(#linear-gradient-14)"
     id="path161"
     style="fill:url(#linear-gradient-14)" />
  <path
     d="m 124.81658,272.5486 v 0.13 c 0.24,0.61 1,0.81 1.64,0.89 a 13.93,13.93 0 0 0 1.82,0.08 2.49,2.49 0 0 0 0.86,-0.12 3.2,3.2 0 0 0 0.71,-0.43 l 1.75,-1.3 a 7.56,7.56 0 0 0 1.34,-1.18 2.4,2.4 0 0 0 0.58,-1.65 1.46,1.46 0 0 0 -1.05,-1.3 4.52,4.52 0 0 0 -1.1,0 2.12,2.12 0 0 1 -2.08,-1 1.56,1.56 0 0 0 -0.5,-0.84 1.27,1.27 0 0 0 -0.82,-0.1 6.32,6.32 0 0 0 -1.78,0.35 2.06,2.06 0 0 0 -1.25,1.26 3.26,3.26 0 0 0 -0.08,0.82 13.94,13.94 0 0 1 0,1.71 19.19,19.19 0 0 0 -0.12,2.14 2.35,2.35 0 0 0 0.08,0.54 z"
     fill="#262836"
     id="path163" />
  <path
     d="m 141.78658,272.7786 a 29.45,29.45 0 0 1 -3.63,1.38 2.28,2.28 0 0 1 -1.56,0.09 1.57,1.57 0 0 1 -0.83,-1 4.73,4.73 0 0 1 -0.13,-1.35 11,11 0 0 1 0.43,-2.07 c 0.11,-0.63 0.2,-1.26 0.28,-1.89 0.13,-0.91 0.25,-1.81 0.36,-2.71 l 3.15,0.67 c 0.33,0.07 0.64,1.34 0.84,1.61 a 1.65,1.65 0 0 0 1.26,0.67 12.78,12.78 0 0 1 1.62,-0.13 1.62,1.62 0 0 1 1.25,1.54 2.57,2.57 0 0 1 -0.85,1.89 6.25,6.25 0 0 1 -1.8,1.14 z"
     fill="#262836"
     id="path165" />
  <path
     d="m 141.83658,269.2586 a 20.22,20.22 0 0 1 -2.57,1.23 h -0.08 c -1.46,0.57 -3.09,-1.72 -3.09,-1.72 0,0 -2.06,-12.72 -2,-18 0.07,-3.62 -0.79,-8.78 -2.08,-18.14 -0.32,9.56 -1.94,13.76 -1.53,17.19 0.63,5.21 -0.12,18.15 -0.12,18.15 0,0 -1.38,2.52 -2.89,2.18 h -0.09 a 18.78,18.78 0 0 1 -2.67,-0.82 c 0,0 -1.76,-17.82 -1.76,-22.52 0,-4.7 0.2,-8.91 0.2,-8.91 l -0.92,-14.88 3.92,-5.7 0.32,-0.13 0.3,-0.3 4.35,-3.19 c 0,0 0,0.74 -0.08,2 l 3.38,1.81 0.32,0.24 0.33,0.08 5.66,1 c 0,0 1.48,22.83 2,27.5 0.52,4.67 -0.9,22.93 -0.9,22.93 z"
     fill="#68e1fd"
     id="path167" />
  <path
     d="m 141.83658,269.2586 a 20.22,20.22 0 0 1 -2.57,1.23 h -0.08 c -1.46,0.57 -3.09,-1.72 -3.09,-1.72 0,0 -2.06,-12.72 -2,-18 0.07,-3.62 -0.79,-8.78 -2.08,-18.14 -0.32,9.56 -1.94,13.76 -1.53,17.19 0.63,5.21 -0.12,18.15 -0.12,18.15 0,0 -1.38,2.52 -2.89,2.18 h -0.09 a 18.78,18.78 0 0 1 -2.67,-0.82 c 0,0 -1.76,-17.82 -1.76,-22.52 0,-4.7 0.2,-8.91 0.2,-8.91 l -0.92,-14.88 3.92,-5.7 0.32,-0.13 0.3,-0.3 4.35,-3.19 c 0,0 0,0.74 -0.08,2 l 3.38,1.81 0.32,0.24 0.33,0.08 5.66,1 c 0,0 1.48,22.83 2,27.5 0.52,4.67 -0.9,22.93 -0.9,22.93 z"
     fill="url(#linear-gradient-15)"
     id="path169"
     style="fill:url(#linear-gradient-15)" />
  <path
     d="m 168.47658,189.6786 a 0.43,0.43 0 0 1 0.24,-0.08 c 0.23,0 0.24,0.37 0.16,0.59 a 6.22,6.22 0 0 1 -0.9,1.71 0.75,0.75 0 0 0 -0.21,0.48 c 0,0.18 0.16,0.31 0.28,0.44 a 3.57,3.57 0 0 1 0.77,3.15 6.22,6.22 0 0 1 -1.65,2.89 2.37,2.37 0 0 1 -1.59,0.89 c -1.08,0 -2.43,-1.33 -2.86,-2.25 a 2.8,2.8 0 0 1 0.52,-2.72 14.32,14.32 0 0 1 5.24,-5.1 z"
     fill="#a67c52"
     id="path171" />
  <path
     d="m 137.14658,179.1786 c 0.35,0.36 0.89,0.73 0.74,1.2 -0.08,0.25 -0.35,0.4 -0.55,0.58 a 2.72,2.72 0 0 0 -0.74,1.94 6.27,6.27 0 0 1 -0.3,2.11 1.56,1.56 0 0 1 -1.7,1 c -0.41,-0.11 -0.82,-0.47 -1.22,-0.3 -0.4,0.17 -0.4,0.5 -0.56,0.78 a 2.18,2.18 0 0 1 -2.08,1 6.58,6.58 0 0 1 -2.28,-0.79 1.72,1.72 0 0 1 -0.75,-0.58 1.25,1.25 0 0 1 -0.08,-0.81 6.51,6.51 0 0 1 1.19,-2.23 9.57,9.57 0 0 0 1.51,-4.43 c 0.08,-1.1 0,-2.31 0.71,-3.16 1,-1.16 3.27,-1.15 4.46,-0.3 1.19,0.85 0.55,2.86 1.65,3.99 z"
     fill="#a67c52"
     id="path173" />
  <path
     d="m 135.72658,174.1986 a 1.71,1.71 0 0 1 -0.61,0.67 c -0.53,0.31 -1,0.67 -1.48,1 a 2.23,2.23 0 0 0 -0.95,1.38 c -0.21,1 0.35,2.14 0,3.15 -0.13,0.21 -0.46,0.08 -0.59,-0.12 -0.13,-0.2 -0.21,-0.45 -0.41,-0.57 -0.35,-0.2 -0.77,0.14 -0.92,0.51 a 1.77,1.77 0 0 0 1,2.24 c -0.05,0.32 -0.46,0.45 -0.79,0.41 a 3.64,3.64 0 0 0 -1,-0.13 c -0.75,0.14 -1,1.21 -1.78,1.32 a 1.68,1.68 0 0 1 -1.29,-0.75 l -0.91,-1 a 5.11,5.11 0 0 0 -0.48,-0.55 c -0.21,-0.16 -0.55,-0.17 -0.72,-0.36 -0.17,-0.19 0,-0.64 -0.18,-0.88 a 0.71,0.71 0 0 0 -0.31,-0.19 1.28,1.28 0 0 1 -0.66,-1.47 0.34,0.34 0 0 0 0,-0.22 c 0,-0.1 -0.14,-0.14 -0.24,-0.19 a 1.38,1.38 0 0 1 -0.51,-1.72 2.93,2.93 0 0 1 0.64,-0.92 0.92,0.92 0 0 1 0.9,-0.41 l 0.15,-1.31 a 1.5,1.5 0 0 1 1.77,-1.5 l -0.3,-1.08 a 0.58,0.58 0 0 1 0,-0.43 0.54,0.54 0 0 1 0.32,-0.18 4.89,4.89 0 0 1 1.07,-0.18 5.14,5.14 0 0 1 -0.3,-0.94 0.26,0.26 0 0 1 0.32,-0.36 1.34,1.34 0 0 0 0.4,0 c 0,0 -0.2,-0.92 -0.21,-1 a 1.14,1.14 0 0 1 0.15,-0.84 1,1 0 0 1 0.89,-0.33 2.76,2.76 0 0 1 0.92,0.34 c 0,-0.35 0.43,-0.53 0.78,-0.56 a 4,4 0 0 1 3.48,1.67 1.86,1.86 0 0 0 0.22,0.27 1.7,1.7 0 0 0 0.52,0.22 2.09,2.09 0 0 1 1.17,1.36 6.19,6.19 0 0 1 0.18,1.82 5,5 0 0 1 -0.13,1.4 1.91,1.91 0 0 1 -0.11,0.43 z"
     fill="#2f3554"
     id="path175" />
  <path
     d="m 130.75658,185.5386 a 20.23,20.23 0 0 1 2.42,1.21 1.83,1.83 0 0 1 0.61,0.53 0.84,0.84 0 0 1 0.08,0.84 c -0.21,0.37 -0.71,0.24 -1.09,0.1 a 14.7,14.7 0 0 0 -5.48,-0.76 0.68,0.68 0 0 1 -0.66,-0.27 0.9,0.9 0 0 1 0.07,-0.75 c 0.95,-1.91 2.5,-1.6 4.05,-0.9 z"
     fill="white"
     id="path177" />
  <path
     d="m 164.98658,200.2786 a 7.43,7.43 0 0 1 -1.57,2.41 c -0.65,0.73 -1.32,1.43 -2,2.11 a 59.63,59.63 0 0 1 -5.19,4.47 10.61,10.61 0 0 1 -4.29,2.3 3.38,3.38 0 0 1 -1.94,-0.12 4.83,4.83 0 0 1 -1.35,-1 c -0.46,-0.46 -5.8,-6.61 -5.89,-6.61 a 1.43,1.43 0 0 0 -0.66,0.75 14.8,14.8 0 0 0 -1.41,5.09 14.43,14.43 0 0 0 0,2.37 c 0.21,2.69 1.15,5.46 0.22,8 a 3.66,3.66 0 0 1 -0.9,1.42 4.26,4.26 0 0 1 -1.33,0.79 12.43,12.43 0 0 1 -2.68,0.76 10.59,10.59 0 0 1 -1.59,0.17 c -2,0.08 -3.9,-0.3 -5.86,-0.21 -1.66,0.09 -3.31,0.52 -5,0.46 a 1.68,1.68 0 0 1 -2,-1.59 62,62 0 0 1 -1,-10.79 c 0,-1.26 -0.07,-2.53 -0.15,-3.79 -0.07,-1.07 0.22,-3.79 -1,-4 -3.1,-0.6 -6.32,0.16 -9.45,-0.28 a 8,8 0 0 1 2.43,-5.41 13.59,13.59 0 0 1 2.34,-1.59 13,13 0 0 0 2.56,-2.42 22.35,22.35 0 0 1 7.88,-6.17 7,7 0 0 1 1.53,-0.54 h 0.13 a 1,1 0 0 1 0.23,0 7,7 0 0 1 2,0.12 115.48,115.48 0 0 1 13.22,3 4.59,4.59 0 0 1 1.6,0.7 4.55,4.55 0 0 1 0.86,1.05 c 1.22,1.84 2.41,3.7 3.64,5.54 1.06,1.58 2.1,3.56 3.66,4.72 a 43.1,43.1 0 0 0 9.54,-5.38 c 0.41,-0.31 0.94,-0.65 1.41,-0.44 a 1.21,1.21 0 0 1 0.41,0.3 c 1.15,1 2.16,2.1 1.6,3.81 z"
     fill="white"
     id="path179" />
</svg>
