<?xml version="1.0" encoding="UTF-8" standalone="no"?>
<svg
   id="Layer_1"
   data-name="Layer 1"
   viewBox="0 0 296.45753 244.00828"
   width="300.90439"
   height="248.88844"
   class="illustration styles_illustrationTablet__1DWOa"
   version="1.1"
   sodipodi:docname="team.svg"
   inkscape:version="1.1 (c68e22c387, 2021-05-23)"
   xmlns:inkscape="http://www.inkscape.org/namespaces/inkscape"
   xmlns:sodipodi="http://sodipodi.sourceforge.net/DTD/sodipodi-0.dtd"
   xmlns="http://www.w3.org/2000/svg"
   xmlns:svg="http://www.w3.org/2000/svg">
  <defs
     id="defs175" />
  <sodipodi:namedview
     id="namedview173"
     pagecolor="#ffffff"
     bordercolor="#666666"
     borderopacity="1.0"
     inkscape:pageshadow="2"
     inkscape:pageopacity="0.0"
     inkscape:pagecheckerboard="0"
     showgrid="false"
     inkscape:zoom="2.4607843"
     inkscape:cx="158.48606"
     inkscape:cy="127.80478"
     inkscape:window-width="1271"
     inkscape:window-height="1003"
     inkscape:window-x="3250"
     inkscape:window-y="146"
     inkscape:window-maximized="0"
     inkscape:current-layer="Layer_1" />
  <title
     id="title2">_</title>
  <ellipse
     cx="155.56165"
     cy="228.79936"
     rx="134.06"
     ry="9.8500004"
     fill="#e6e6e6"
     opacity="0.45"
     id="ellipse4" />
  <path
     d="m 162.40165,18.479367 -1.28,28 c -3.73,7 -4.81,8.16 -6.14,8.41 v 8.38 c 3.29,0.8 6.21,1 7.93,0 6,-3.6 10.14,-21.89 10.14,-21.89 z"
     fill="#68e1fd"
     id="path6" />
  <rect
     x="47.450996"
     y="49.701126"
     width="220.73"
     height="160.39"
     transform="rotate(-0.14)"
     fill="#f2f2f2"
     id="rect8" />
  <rect
     x="47.561657"
     y="49.309368"
     width="220.81"
     height="31.58"
     fill="#e6e6e6"
     id="rect10" />
  <circle
     cx="67.371658"
     cy="65.599373"
     r="4"
     fill="#24285b"
     id="circle12" />
  <circle
     cx="79.27166"
     cy="65.569374"
     r="4"
     fill="#68e1fd"
     id="circle14"
     style="fill:#69f" />
  <circle
     cx="90.481651"
     cy="65.539368"
     r="4"
     fill="#ffd200"
     id="circle16" />
  <rect
     x="148.47165"
     y="156.97937"
     width="94.629997"
     height="5.8899999"
     fill="#e6e6e6"
     id="rect18" />
  <rect
     x="148.47165"
     y="172.57936"
     width="94.629997"
     height="5.8899999"
     fill="#e6e6e6"
     id="rect20" />
  <rect
     x="148.47165"
     y="188.17937"
     width="65.75"
     height="5.8899999"
     fill="#e6e6e6"
     id="rect22" />
  <rect
     x="148.47165"
     y="92.059372"
     width="92.18"
     height="55.200001"
     fill="#e6e6e6"
     id="rect24" />
  <rect
     x="67.531662"
     y="91.559372"
     width="70.330002"
     height="19.84"
     fill="#666"
     opacity="0.17"
     id="rect26" />
  <rect
     x="67.531662"
     y="119.65937"
     width="70.330002"
     height="19.84"
     fill="#e6e6e6"
     id="rect28" />
  <circle
     cx="79.781662"
     cy="129.66936"
     r="7.1399999"
     fill="#666"
     opacity="0.17"
     id="circle30" />
  <rect
     x="92.301659"
     y="125.22938"
     width="28.370001"
     height="3.1400001"
     fill="#666"
     opacity="0.17"
     id="rect32" />
  <rect
     x="92.301659"
     y="131.50937"
     width="17.780001"
     height="3.1400001"
     fill="#666"
     opacity="0.17"
     id="rect34" />
  <rect
     x="67.531662"
     y="147.76936"
     width="70.330002"
     height="19.84"
     fill="#e6e6e6"
     id="rect36" />
  <circle
     cx="79.781662"
     cy="157.77936"
     r="7.1399999"
     fill="#666"
     opacity="0.17"
     id="circle38" />
  <rect
     x="92.301659"
     y="153.32936"
     width="28.370001"
     height="3.1400001"
     fill="#666"
     opacity="0.17"
     id="rect40" />
  <rect
     x="92.301659"
     y="159.61937"
     width="17.780001"
     height="3.1400001"
     fill="#666"
     opacity="0.17"
     id="rect42" />
  <rect
     x="67.531662"
     y="175.86937"
     width="70.330002"
     height="19.84"
     fill="#e6e6e6"
     id="rect44" />
  <circle
     cx="79.781662"
     cy="185.87936"
     r="7.1399999"
     fill="#666"
     opacity="0.17"
     id="circle46" />
  <rect
     x="92.301659"
     y="181.43936"
     width="28.370001"
     height="3.1400001"
     fill="#666"
     opacity="0.17"
     id="rect48" />
  <rect
     x="92.301659"
     y="187.71936"
     width="17.780001"
     height="3.1400001"
     fill="#666"
     opacity="0.17"
     id="rect50" />
  <path
     d="m 71.371655,209.90937 c 0.34,0 -7.8,-44.21 -5.09,-50.29 2.71,-6.08 9.15,-12 9,-16.89 -0.15,-4.89 18.87,-19.33 23,-31.33 l 3.699995,5.85 38.55,-32.560003 c 0,0 6.57,-0.94 8.71,-5.71 2.14,-4.77 22.17,-29.71 22.17,-29.71 h -10.72 l -12.1,15.8 -8.2,-3.47 -43.789995,33 -2.51,9.700003 c 0,0 -31.32,22.47 -41.66,34.34 -10.34,11.87 3.45,71.26 3.45,71.26 z"
     opacity="0.08"
     id="path52" />
  <rect
     x="10.541166"
     y="130.12122"
     width="61.290001"
     height="18.059999"
     transform="rotate(-39.64)"
     fill="#24285b"
     id="rect54" />
  <circle
     cx="105.53165"
     cy="93.389374"
     r="6.5"
     fill="#ffd200"
     id="circle56" />
  <rect
     x="33.097878"
     y="135.18393"
     width="25.82"
     height="2.8599999"
     transform="rotate(-39.64)"
     fill="white"
     opacity="0.17"
     id="rect58" />
  <rect
     x="33.097488"
     y="140.90179"
     width="16.18"
     height="2.8599999"
     transform="rotate(-39.64)"
     fill="white"
     opacity="0.17"
     id="rect60" />
  <path
     d="m 36.101655,174.41937 -6.53,20.85 a 21.46,21.46 0 0 1 -11.25,13 l -9.6000001,4.56 0.39,2.84 14.3400001,-3.1 a 25.25,25.25 0 0 0 15.6,-13.22 l 10.13,-20.86 z"
     fill="#f4a28c"
     id="path62" />
  <polygon
     points="101.9,250.74 90.55,208.91 101.69,205.03 104.75,249.75 "
     fill="#f4a28c"
     id="polygon64"
     transform="translate(-43.948345,-24.730633)" />
  <path
     d="m 61.391655,225.78937 c 0,0 0.66,2.65 2.66,3.48 2,0.83 1,3.71 -2,1.95 a 19.17,19.17 0 0 1 -2.65,-1.85 5.64,5.64 0 0 0 -2.69,-1.15 1,1 0 0 1 -0.73,-0.78 c -0.4,-1.46 2.92,-2.84 2.92,-2.84 z"
     fill="#68e1fd"
     id="path66"
     style="fill:#039" />
  <path
     d="m 9.1116549,215.63937 c 0,0 -2,1.54 -2,3.56 0,2.02 -2.8,2.27 -2.45,-1 a 19,19 0 0 1 0.56,-3 5.2,5.2 0 0 0 -0.05,-2.74 0.87,0.87 0 0 1 0.39,-0.92 c 1.09,-0.9 3.55,1.4 3.55,1.4 z"
     fill="#68e1fd"
     id="path68"
     style="fill:#039" />
  <polygon
     points="82.15,146.36 81.54,139 84.57,140.22 85.64,144.52 "
     fill="#f4a28c"
     id="polygon70"
     transform="translate(-43.948345,-24.730633)" />
  <path
     d="m 36.771655,110.12937 a 2.62,2.62 0 0 1 4.38,-0.38 c 1.29,1.62 2.8,4.15 0.77,5.3 -3.11,1.76 -5.51,-2.18 -5.51,-2.18 a 4.73,4.73 0 0 1 0.36,-2.74 z"
     fill="#f4a28c"
     id="path72" />
  <path
     d="m 22.451655,128.97937 c 0,0 -15.0000001,23.47 -12,26.93 9.54,11 30.72,-13.74 30.72,-13.74 z"
     fill="#f4a28c"
     id="path74" />
  <path
     d="m 56.411655,125.46937 a 25.91,25.91 0 0 0 -29.8,-0.53 c -3.93,2.67 -7,6.67 -5.57,12.45 3.25,13.57 13.65,22.51 14,34.45 l 24.61,-1.65 v -15.37 a 10.5,10.5 0 0 1 3.36,-7.74 c 2.14,-2 4.28,-5.21 2.82,-9.63 -1.33,-3.94 -4.69,-8.51 -9.42,-11.98 z"
     fill="#68e1fd"
     id="path76"
     style="fill:#36c" />
  <path
     d="m 38.721655,112.86937 c 0,0 -0.7,-0.69 -1.12,0.18 -0.42,0.87 0.89,1.41 1.32,1 0.43,-0.41 -0.2,-1.18 -0.2,-1.18 z"
     fill="#f4a28c"
     id="path78" />
  <path
     d="m 44.231655,131.86937 c 0,0 -5.32,10.16 0.85,20.07 6.17,9.91 -5.52,19.59 -5.52,19.59 l 20.06,-1.34 v -8.76 z"
     opacity="0.08"
     id="path80" />
  <path
     d="m 33.981655,125.77937 c 0.47,-1.84 2.66,-5.18 -0.42,-11.2 a 7.39,7.39 0 0 1 0.06,-6.33 c 2.93,-4.94 7.65,-3.25 7.09,-0.48 -0.56,2.77 -1,4.09 -1,4.09 0,0 8.94,6.41 7.63,11.13 -1.11,4.2 -15.35,10.45 -13.36,2.79 z"
     fill="#24285b"
     id="path82" />
  <polygon
     points="107.66,225.84 69.55,224.12 77.88,190.29 103.57,190.29 "
     fill="#24285b"
     id="polygon84"
     transform="translate(-43.948345,-24.730633)" />
  <path
     d="m 42.311655,138.10937 a 7.22,7.22 0 0 1 3.74,-9.57 38,38 0 0 1 5.37,-1.76 c 10.94,-2.8 29.94,-10.41 41.1,-25.07 0,0 3.22,-5.610003 7.749995,-4.120003 4.53,1.49 1.38,6.760003 -3.179995,5.440003 0,0 -13.63,34.74 -44.79,40.46 a 9.19,9.19 0 0 1 -10,-5.38 z"
     fill="#f4a28c"
     id="path86" />
  <polygon
     points="207.5,48.42 196.66,39.6 195.21,34.26 207.65,39.24 "
     fill="#f4a28c"
     id="polygon88"
     transform="translate(-43.948345,-24.730633)" />
  <path
     d="m 154.35165,16.319367 a 4.84,4.84 0 0 0 0,-2.78 7.65,7.65 0 0 1 2.75,4.9 z"
     fill="#ce8172"
     opacity="0.31"
     id="path90" />
  <path
     d="m 147.27165,14.089367 a 25.25,25.25 0 0 0 5.5,4 2,2 0 0 0 2.72,-1 4.52,4.52 0 0 0 -0.44,-4.9 l -2,-3.1899996 a 3.65,3.65 0 0 0 -4.07,-1.19 c -2.77,0.71 -3.6,4.6399996 -1.71,6.2799996 z"
     fill="#f4a28c"
     id="path92" />
  <path
     d="m 149.22165,15.769367 0.52,1.87 a 0.66,0.66 0 0 0 1.06,0.33 l 1.2,-1 z"
     fill="#f4a28c"
     id="path94" />
  <path
     d="m 156.53165,11.319367 -3.8,-4.0499996 c 0,0 1.2,-2.91 -1,-3.2 -2.2,-0.29 -1.73,1.48 -3.72,0.29 -1.99,-1.19 -3.4,0.15 -3,2 0.4,1.85 -0.82,0.33 -1.91,1.61 -1.09,1.28 -0.71,2.0599996 0.35,2.7699996 1.06,0.71 -1.37,2 -0.34,3.4 1.03,1.4 2.3,2.29 4.73,-1.1 2.43,-3.3899996 3.72,0.93 8.69,-1.72 z"
     fill="#ffd200"
     id="path96" />
  <path
     d="m 152.72165,12.879367 c 0,0 -1.21,-1 -0.38,-1.85 0.83,-0.85 2.59,0.6 1.75,2 z"
     fill="#f4a28c"
     id="path98" />
  <path
     d="m 196.22165,51.579367 c 0,0 -5.27,13.68 0.71,20.55 5.98,6.87 19.34,13.51 19.34,13.51 0,0 1.71,8 5.94,0.73 l -0.82,-3.94 -12.51,-9.52 -8,-10.11 5.16,-11 z"
     opacity="0.08"
     id="path100" />
  <path
     d="m 213.36165,34.539367 -7.31,9.36 v 0 l -4.89,6.37 a 45.5,45.5 0 0 1 -8.59,0.47 c -8.48,-0.3 -20.94,-3 -26.37,-15.12 a 33.09,33.09 0 0 1 -2.64,-11.9 l 0.14,-9.17 c 0,0 13.7,-9.9999996 26,-1.66 12.3,8.34 23.66,21.65 23.66,21.65 z"
     fill="#68e1fd"
     id="path102"
     style="fill:#36c" />
  <path
     d="m 213.36165,34.539367 c 0,0 13.69,9.14 6.35,15.43 a 76.29,76.29 0 0 0 -10.14,11 5.16,5.16 0 0 0 0.41,6.77 l 10.18,10.37 -1.77,4.75 -15,-9.51 a 12.51,12.51 0 0 1 -5.14,-14.56 l 2.91,-8.52 z"
     fill="#24285b"
     id="path104" />
  <path
     d="m 206.05165,43.899367 -4.89,6.37 c 0,0 -3.57,0.24 -8.59,0.47 -8.48,-0.3 -20.94,-3 -26.37,-15.12 4.4,-6 10.19,-11.66 12.91,-12.28 0,0 5.1,14.39 12.72,16.78 7.44,2.34 13.94,3.75 14.25,3.82 z"
     opacity="0.08"
     id="path106" />
  <path
     d="m 179.55165,25.879367 c 1,-8.42 -9.87,-12.66 -15.08,-6 a 19.75,19.75 0 0 0 -3.42,6.64 c -2.66,9 -19.25,45.66 -19.25,45.66 l 5.63,2.75 c 0,0 21.09,-26.36 29.3,-40.87 a 22,22 0 0 0 2.82,-8.18 z"
     fill="#68e1fd"
     id="path108" />
  <path
     d="m 179.55165,25.879367 c 1,-8.42 -9.87,-12.66 -15.08,-6 a 19.75,19.75 0 0 0 -3.42,6.64 c -2.66,9 -19.25,45.66 -19.25,45.66 l 5.63,2.75 c 0,0 21.09,-26.36 29.3,-40.87 a 22,22 0 0 0 2.82,-8.18 z"
     fill="#fff"
     opacity="0.36"
     id="path110"
     style="fill:#36c" />
  <path
     d="m 142.69165,72.629367 c 0,0 -6.21,3.5 -2.72,5.81 3.49,2.31 7.42,-3.51 7.42,-3.51 z"
     fill="#f4a28c"
     id="path112" />
  <path
     d="m 218.81165,81.679367 c 0,0 2.89,3 1.87,4.94 0,0 2,2.13 3.56,-0.67 1.56,-2.8 -1.16,-6 -1.16,-6 l -3.23,-1.1 z"
     fill="#68e1fd"
     id="path114"
     style="fill:#039" />
  <path
     d="m 244.78165,181.59937 q -3,7.78 -5.41,15.76 c -0.32,1.06 -1.69,7.6 -2.84,11.93 h 13.33 a 56.19,56.19 0 0 1 10.41,-27.94 c 0.13,9.66 0.49,20 5.94,27.94 h 6.09 a 9.08,9.08 0 0 0 2.12,-5.25 27.57,27.57 0 0 0 -0.93,-7.85 122,122 0 0 1 -2.54,-24.19 c 0,-10.23 1.19,-20.48 0.31,-30.68 -0.53,-6.05 -2,-12.49 -6.63,-16.48 a 4.81,4.81 0 0 0 -0.62,-0.47 c 0.46,-3.6 0.69,-7.24 0.9,-10.85 l 0.64,-10.52 c 0.22,-3.570003 -1.79,-9.380003 -5.91,-5.370003 -3.36,3.260003 -2.19,7.000003 -3,10.890003 -1.28,6.08 -8.81,5.29 -13.56,5.08 -15,-0.67 -30.16,-0.29 -45.22,-0.29 h -35.39 v 65.47 h 83.47 c -0.4,0.94 -0.8,1.88 -1.16,2.82 z"
     opacity="0.08"
     id="path116" />
  <path
     d="m 241.29165,222.83937 c 0,0 -2.21,2.18 -4.6,1.15 -2.39,-1.03 -4.13,1 -2.37,2.73 1.76,1.73 8.42,1.79 8.42,1.79 l 1.95,-4.51 z"
     fill="#68e1fd"
     id="path118"
     style="fill:#039" />
  <path
     d="m 278.40165,221.82937 c 0,0 1.08,3 -0.72,4.92 -1.8,1.92 -0.68,4.4 1.5,3.34 2.18,-1.06 4.75,-7.54 4.75,-7.54 l -3.23,-3.6 z"
     fill="#68e1fd"
     id="path120"
     style="fill:#039" />
  <path
     d="m 284.31165,165.99937 c 0,0 2.33,9.7 -1.72,14.47 -4.05,4.77 -10.25,27.37 0,38.67 l -4.05,4 c 0,0 -17.75,-9.54 -12.69,-43.94 l -12.68,-13.21 z"
     fill="#24285b"
     id="path122" />
  <path
     d="m 253.17165,165.99937 -13,57.15 6.51,1 c 0,0 13,-39.17 21.61,-47.21 z"
     fill="#24285b"
     id="path124" />
  <path
     d="m 250.15165,115.74937 c 0,0 -13.58,5.79 -11.5,27 l 13.26,-1.13 z"
     fill="#68e1fd"
     id="path126" />
  <path
     d="m 250.15165,115.74937 c 0,0 -13.58,5.79 -11.5,27 l 13.26,-1.13 z"
     fill="white"
     opacity="0.36"
     id="path128" />
  <polygon
     points="305.08,137.55 308.49,127.86 313.17,124.6 312.65,138.38 "
     fill="#f4a28c"
     id="polygon130"
     transform="translate(-43.948345,-24.730633)" />
  <path
     d="m 263.71165,105.26937 a 5,5 0 0 0 2.7,-1 7.9,7.9 0 0 1 -3.8,4.36 z"
     fill="#ce8172"
     opacity="0.31"
     id="path132" />
  <path
     d="m 268.05165,110.85937 -4.42,0.92 c 0,0 -20.24,2.18 -21.06,13.6 -0.82,11.42 10.61,40.62 10.61,40.62 h 30.67 c 0,0 24.55,-58.16 -15.8,-55.14 z"
     fill="#68e1fd"
     id="path134"
     style="fill:#36c" />
  <path
     d="m 261.75165,97.849367 a 26,26 0 0 0 -0.62,7.000003 2.12,2.12 0 0 0 2.34,1.87 4.67,4.67 0 0 0 4.1,-3 l 1.75,-3.47 a 3.79,3.79 0 0 0 -1.09,-4.230003 c -2.12,-2.03 -6.04,-0.7 -6.48,1.83 z"
     fill="#f4a28c"
     id="path136" />
  <path
     d="m 277.05165,116.17937 c 0,0 -10.45,6.09 -8,19.88 2.45,13.79 6.48,18.53 -2.17,16.61 -8.65,-1.92 -12.21,-6.27 -12.21,-6.27 0,0 -6.23,5.08 0,8.93 6.23,3.85 14.68,3.85 16,10.67 h 13.16 c 0,0 1.06,-3 2.47,-6.75 1.41,-3.75 -9.25,-43.07 -9.25,-43.07 z"
     opacity="0.09"
     id="path138" />
  <path
     d="m 262.76165,98.169367 a 16.81,16.81 0 0 0 3.88,0.24 3.51,3.51 0 0 0 -0.53,3.810003 2.85,2.85 0 0 0 3.26,1.6 l 0.68,-5.360003 a 4.26,4.26 0 0 0 -1.63,-4.08 16.66,16.66 0 0 0 -1.66,-1.13 5.09,5.09 0 0 0 -5.27,0.19 2.9,2.9 0 0 0 -0.35,4.06 3,3 0 0 0 1.62,0.67 z"
     fill="#24285b"
     id="path140" />
  <path
     d="m 265.68165,102.03937 c 0,0 0.26,-1.61 1.45,-1.31 1.19,0.3 0.83,2.6 -0.84,2.59 z"
     fill="#f4a28c"
     id="path142" />
  <rect
     x="168.35165"
     y="106.94936"
     width="88.949997"
     height="65.139999"
     fill="#ffd200"
     id="rect144" />
  <rect
     x="175.70164"
     y="113.01937"
     width="74.260002"
     height="53"
     fill="white"
     opacity="0.43"
     id="rect146" />
  <polygon
     points="257.87,182.36 273.31,164.25 293.9,190.75 220.5,190.75 240.71,153.38 "
     fill="white"
     opacity="0.49"
     id="polygon148"
     transform="translate(-43.948345,-24.730633)" />
  <circle
     cx="215.30165"
     cy="129.83937"
     r="5.96"
     fill="white"
     id="circle150" />
  <path
     d="m 293.27165,140.54937 c 0,0 1.73,17.71 -7,18.7 -6.56,0.74 -17.08,-3 -23.51,-4.79 -2.78,-0.8 -4.13,-1.17 -6.27,-3.12 -2.56,-2.34 -6.12,-4 -3.36,-6.23 4.91,-4 8.4,2.81 8.4,2.81 a 54.18,54.18 0 0 0 12.59,2.1 5.14,5.14 0 0 0 5.11,-6.47 l -1.62,-6.1 c 0,0 11.53,-10.8 15.66,3.1 z"
     fill="#f4a28c"
     id="path152" />
  <path
     d="m 261.29165,100.46937 -1.38,1.44 a 0.68,0.68 0 0 0 0.27,1.11 l 1.55,0.52 z"
     fill="#f4a28c"
     id="path154" />
  <path
     d="m 284.24165,114.79937 c 4.49,3.47 11.32,11.13 11.19,25.61 l -18.58,1.19 c 0,0 -5.37,-15.9 0.24,-25.42 a 4.84,4.84 0 0 1 7.15,-1.38 z"
     fill="#68e1fd"
     id="path156" />
  <path
     d="m 284.24165,114.79937 c 4.49,3.47 11.32,11.13 11.19,25.61 l -18.58,1.19 c 0,0 -5.37,-15.9 0.24,-25.42 a 4.84,4.84 0 0 1 7.15,-1.38 z"
     fill="#fff"
     opacity="0.36"
     id="path158"
     style="fill:#36c" />
  <rect
     x="-129.46165"
     y="-49.289364"
     width="28"
     height="4.4299998"
     transform="scale(-1)"
     fill="#c9c9c9"
     id="rect160" />
  <rect
     x="-122.64165"
     y="-44.839371"
     width="21.18"
     height="4.4299998"
     transform="scale(-1)"
     fill="#e6e6e6"
     id="rect162" />
  <path
     d="m 103.84165,39.389367 c 0,0 7.82,-2.14 9.53,-9.43 0,0 -12.13,-2.45 -12.48,10.07 z"
     fill="#68e1fd"
     opacity="0.58"
     id="path164"
     style="fill:#69f" />
  <path
     d="m 102.88165,38.609367 c 0,0 5.46,-8.65 0.65,-16.73 0,0 -9.219995,5.86 -5.119995,16.75 z"
     fill="#68e1fd"
     opacity="0.73"
     id="path166"
     style="fill:#36c" />
  <path
     d="m 101.47165,38.619367 c 0,0 -2.889995,-9.13 -11.629995,-10.86 0,0 -1.63,5.92 5.66,10.88 z"
     fill="#68e1fd"
     id="path168"
     style="fill:#039" />
  <polygon
     points="139.51,74.04 138.04,63.19 151.09,63.14 149.51,74 "
     fill="#24285b"
     id="polygon170"
     transform="translate(-43.948345,-24.730633)" />
</svg>
