<?xml version="1.0" encoding="UTF-8" standalone="no"?>
<svg
   viewBox="0 0 400 300"
   width="406"
   height="306"
   class="illustration styles_illustrationTablet__1DWOa"
   version="1.1"
   id="svg145"
   sodipodi:docname="RVA Team building _Flatline.svg"
   inkscape:version="1.1 (c68e22c387, 2021-05-23)"
   xmlns:inkscape="http://www.inkscape.org/namespaces/inkscape"
   xmlns:sodipodi="http://sodipodi.sourceforge.net/DTD/sodipodi-0.dtd"
   xmlns="http://www.w3.org/2000/svg"
   xmlns:svg="http://www.w3.org/2000/svg">
  <defs
     id="defs149" />
  <sodipodi:namedview
     id="namedview147"
     pagecolor="#ffffff"
     bordercolor="#666666"
     borderopacity="1.0"
     inkscape:pageshadow="2"
     inkscape:pageopacity="0.0"
     inkscape:pagecheckerboard="0"
     showgrid="false"
     inkscape:zoom="2.4607843"
     inkscape:cx="203.18725"
     inkscape:cy="153"
     inkscape:window-width="1271"
     inkscape:window-height="1003"
     inkscape:window-x="3372"
     inkscape:window-y="90"
     inkscape:window-maximized="0"
     inkscape:current-layer="svg145" />
  <path
     d="m 261.22,83.55 -40.15,9.79 c -1.08,0.69 -8.39,1.24 -11.3,0.15 -2.91,-1.09 -2.55,-3.5 -2,-5.13 0.55,-1.63 7.06,-2.09 7.06,-2.09 0,0 -2.89,-1.31 -2.73,-2.54 0.16,-1.23 5.24,1.81 5.24,1.81 L 255.65,73.9 Z"
     fill="white"
     id="path2" />
  <path
     d="M 214.91,94.6 A 17.28,17.28 0 0 1 209.6,94 c -1.72,-0.65 -3.51,-2.17 -2.3,-5.76 0.47,-1.39 3.69,-2 5.89,-2.28 -0.85,-0.57 -1.7,-1.37 -1.58,-2.25 a 0.79,0.79 0 0 1 0.45,-0.63 c 1,-0.46 3.69,1 5.35,2 L 255.5,73.42 a 0.49,0.49 0 0 1 0.58,0.23 l 5.57,9.65 a 0.51,0.51 0 0 1 0,0.45 0.54,0.54 0 0 1 -0.35,0.29 l -40.07,9.77 c -0.84,0.46 -3.59,0.79 -6.32,0.79 z m -2.3,-10.66 c 0.13,0.52 1.32,1.37 2.43,1.88 a 0.48,0.48 0 0 1 0.28,0.54 0.51,0.51 0 0 1 -0.45,0.41 c -3,0.21 -6.35,0.93 -6.62,1.75 -0.79,2.33 -0.25,3.77 1.7,4.5 2.88,1.08 10,0.45 10.86,-0.1 a 0.52,0.52 0 0 1 0.15,-0.07 l 39.49,-9.63 -5,-8.73 L 217.49,86 a 0.51,0.51 0 0 1 -0.4,0 15.37,15.37 0 0 0 -4.48,-2.06 z"
     fill="#231f20"
     id="path4" />
  <path
     d="m 214.83,86.27 c 0,0 -1.14,3.4 1.92,4.26"
     fill="white"
     id="path6" />
  <path
     d="m 216.75,91 h -0.13 a 3.26,3.26 0 0 1 -2.1,-1.6 4.65,4.65 0 0 1 -0.16,-3.31 0.5,0.5 0 0 1 0.63,-0.31 0.5,0.5 0 0 1 0.32,0.63 3.62,3.62 0 0 0 0.1,2.53 2.23,2.23 0 0 0 1.48,1.09 0.5,0.5 0 0 1 0.34,0.62 0.49,0.49 0 0 1 -0.48,0.35 z"
     fill="#231f20"
     id="path8" />
  <path
     d="m 174,95 a 4.61,4.61 0 0 1 1.28,1.1 5,5 0 0 1 1,4.25 c -0.53,2.24 -3.31,2.94 -5.16,3.93 -2.21,1.19 -4.46,2.29 -6.73,3.36 -4.63,2.16 -9.35,4.12 -14.11,6 -3.92,1.52 -7.87,3 -11.87,4.26 -1.29,0.42 -4.14,1.87 -5.55,1.46 -1.61,-0.46 -5,-9.18 2.8,-10.55 a 26.21,26.21 0 0 0 4.49,-1.7 q 5.46,-2.09 10.87,-4.23 c 4.24,-1.69 8.47,-3.4 12.66,-5.21 2.99,-1.31 7.21,-4.43 10.32,-2.67 z"
     fill="white"
     id="path10" />
  <path
     d="m 133.43,119.91 a 2.59,2.59 0 0 1 -0.7,-0.08 c -1.21,-0.35 -2.64,-3.34 -2.49,-6 0.09,-1.72 0.91,-4.72 5.34,-5.49 a 12.85,12.85 0 0 0 3,-1.07 c 0.49,-0.22 1,-0.43 1.43,-0.61 3.74,-1.43 7.4,-2.85 10.85,-4.23 5.1,-2 9,-3.63 12.65,-5.2 0.63,-0.27 1.33,-0.63 2.07,-1 2.68,-1.39 6,-3.12 8.7,-1.61 v 0 a 5.36,5.36 0 0 1 1.41,1.22 5.51,5.51 0 0 1 1.1,4.69 c -0.46,2 -2.4,2.86 -4.11,3.63 -0.45,0.21 -0.9,0.41 -1.29,0.62 -2,1.08 -4.22,2.18 -6.76,3.37 -4.31,2 -8.93,4 -14.14,6 -4.5,1.75 -8.28,3.1 -11.9,4.27 -0.3,0.1 -0.7,0.26 -1.14,0.44 a 12.27,12.27 0 0 1 -4.02,1.05 z M 171.89,95 c -1.85,0 -4,1.09 -5.88,2.08 -0.76,0.4 -1.47,0.76 -2.14,1 -3.66,1.58 -7.57,3.18 -12.67,5.21 -3.46,1.38 -7.12,2.8 -10.87,4.24 -0.44,0.17 -0.9,0.37 -1.37,0.58 a 14.38,14.38 0 0 1 -3.21,1.15 c -3.56,0.62 -4.42,2.81 -4.51,4.55 -0.14,2.6 1.28,4.88 1.76,5 0.9,0.26 2.79,-0.5 4,-1 0.47,-0.19 0.89,-0.35 1.22,-0.46 3.59,-1.16 7.36,-2.51 11.84,-4.25 5.19,-2 9.79,-4 14.08,-6 2.52,-1.17 4.71,-2.27 6.7,-3.34 0.42,-0.22 0.88,-0.43 1.35,-0.65 1.58,-0.71 3.21,-1.45 3.56,-3 a 4.49,4.49 0 0 0 -0.9,-3.82 4.21,4.21 0 0 0 -1.14,-1 v 0 A 3.75,3.75 0 0 0 171.89,95 Z"
     fill="#231f20"
     id="path12" />
  <path
     d="m 228.82,93.85 a 4.23,4.23 0 0 1 -2.33,1.76 c -1.39,0.62 -2.79,1.21 -4.18,1.82 a 1.91,1.91 0 0 0 -1.14,1.44 c -0.32,1.51 -0.6,3 -0.94,4.52 a 3.48,3.48 0 0 0 1.17,3.61 c 1.08,1 2.1,2 3.1,3 a 2,2 0 0 1 0.35,2.79 c -1.1,1.83 -2.23,3.64 -3.44,5.41 -1.08,1.58 -1.72,1.73 -3.53,1.1 l -0.16,-0.07 c -1.37,-0.55 -2.75,-1.09 -4.11,-1.67 a 2.57,2.57 0 0 0 -2.62,0.22 q -2,1.35 -4,2.67 a 2.34,2.34 0 0 0 -1,1.84 12.22,12.22 0 0 0 -0.08,1.35 c 0,1.48 0,3 0,4.44 a 1.82,1.82 0 0 1 -1.2,1.75 4.4,4.4 0 0 1 -0.89,0.34 c -2.26,0.47 -4.52,0.92 -6.78,1.37 a 1.5,1.5 0 0 1 -1.6,-0.69 11.13,11.13 0 0 1 -1,-1.71 c -0.51,-1.15 -0.95,-2.32 -1.42,-3.49 a 3,3 0 0 0 -2.25,-1.84 l -3.14,-0.68 c -2.69,-0.57 -3.11,-0.44 -5,1.52 -0.9,0.91 -1.78,1.84 -2.72,2.7 a 2,2 0 0 1 -2.78,0.27 c -1.89,-1.18 -3.76,-2.4 -5.59,-3.66 -1.28,-0.89 -1.47,-1.59 -0.92,-3.06 0.55,-1.47 1.09,-2.75 1.67,-4.11 a 3.19,3.19 0 0 0 -0.31,-3.31 c -0.74,-1.06 -1.53,-2.09 -2.2,-3.2 a 3.21,3.21 0 0 0 -3.17,-1.71 c -0.11,0 -0.22,0 -0.33,0 h -4.5 a 1.83,1.83 0 0 1 -1.75,-1.19 4.79,4.79 0 0 1 -0.37,-1 c -0.44,-2.14 -0.88,-4.29 -1.3,-6.44 a 2,2 0 0 1 1.13,-2.3 19.23,19.23 0 0 1 1.84,-0.85 c 1,-0.41 2,-0.79 3,-1.2 a 2.67,2.67 0 0 0 1.7,-2 c 0.35,-1.68 0.64,-3.36 0.95,-5 A 2.11,2.11 0 0 0 166.5,86.8 c -0.5,-0.59 -1,-1.15 -1.56,-1.7 -0.75,-0.77 -1.55,-1.48 -2.27,-2.26 a 2.32,2.32 0 0 1 -0.32,-3.35 c 1.16,-1.82 2.35,-3.61 3.57,-5.39 a 2.2,2.2 0 0 1 2.91,-0.86 c 1.55,0.61 3.09,1.26 4.65,1.86 a 2.67,2.67 0 0 0 2.76,-0.33 c 1.32,-1 2.7,-1.89 4.07,-2.83 A 2.44,2.44 0 0 0 181.39,70 c 0,-0.6 0.05,-1.2 0.05,-1.8 0,-1.28 -0.09,-2.55 0,-3.82 a 2,2 0 0 1 1.56,-2 c 2.36,-0.51 4.74,-1 7.12,-1.37 a 1.9,1.9 0 0 1 2.12,1.14 c 0.4,0.8 0.77,1.62 1.14,2.45 0.37,0.83 0.84,1.92 1.28,2.87 A 1.84,1.84 0 0 0 196,68.7 c 1.61,0.34 3.24,0.62 4.85,1 a 3,3 0 0 0 3.13,-1 c 1.1,-1.17 2.29,-2.27 3.43,-3.41 a 1.84,1.84 0 0 1 2.22,-0.42 27.3,27.3 0 0 1 6.82,4.51 1.72,1.72 0 0 1 0.4,1.22 6.29,6.29 0 0 1 -0.45,1.74 c -0.54,1.43 -1.13,2.85 -1.68,4.29 a 2.13,2.13 0 0 0 0.11,2 c 1.11,1.63 2.23,3.25 3.43,4.81 a 2.2,2.2 0 0 0 1.29,0.66 11.34,11.34 0 0 0 2,0.06 c 1.26,0 2.52,-0.07 3.77,0 a 2.24,2.24 0 0 1 2.2,1.84 c 0.2,0.82 0.4,1.64 0.55,2.47 0.29,1.6 0.56,3.2 0.84,4.8 z M 191.4,110.76 A 14.6,14.6 0 0 0 208,98.68 14.82,14.82 0 0 0 196.07,82 14.6,14.6 0 0 0 179.25,94.1 c -1.4,6.3 2.88,15.21 12.15,16.66 z"
     fill="white"
     id="path14" />
  <path
     d="m 196.72,132.14 a 2,2 0 0 1 -1.68,-0.95 9.93,9.93 0 0 1 -1,-1.79 c -0.35,-0.77 -0.66,-1.55 -1,-2.34 -0.15,-0.38 -0.31,-0.77 -0.46,-1.16 a 2.47,2.47 0 0 0 -1.9,-1.54 l -1.37,-0.3 -1.76,-0.38 c -2.51,-0.54 -2.77,-0.46 -4.58,1.38 l -0.48,0.49 c -0.72,0.74 -1.47,1.51 -2.25,2.23 a 2.53,2.53 0 0 1 -3.38,0.33 c -2.1,-1.32 -3.94,-2.52 -5.61,-3.68 -1.45,-1 -1.74,-2 -1.11,-3.65 0.53,-1.42 1.12,-2.83 1.68,-4.13 a 2.68,2.68 0 0 0 -0.26,-2.82 c -0.22,-0.32 -0.44,-0.64 -0.67,-1 -0.53,-0.73 -1.07,-1.49 -1.55,-2.28 a 2.7,2.7 0 0 0 -2.7,-1.47 1.13,1.13 0 0 1 -0.26,0 h -0.11 -1.5 -3 v 0 a 2.32,2.32 0 0 1 -2.2,-1.48 4.69,4.69 0 0 1 -0.39,-1 q -0.68,-3.23 -1.31,-6.45 a 2.5,2.5 0 0 1 1.38,-2.83 18.31,18.31 0 0 1 1.88,-0.88 l 1.77,-0.7 1.27,-0.5 a 2.17,2.17 0 0 0 1.4,-1.67 c 0.28,-1.31 0.52,-2.63 0.76,-4 l 0.19,-1.07 a 1.6,1.6 0 0 0 -0.38,-1.38 c -0.46,-0.55 -1,-1.09 -1.53,-1.67 -0.3,-0.31 -0.61,-0.62 -0.93,-0.92 -0.32,-0.3 -0.92,-0.89 -1.35,-1.36 a 2.8,2.8 0 0 1 -0.37,-4 c 1.15,-1.81 2.36,-3.63 3.58,-5.4 a 2.67,2.67 0 0 1 3.5,-1 l 2.38,0.95 2.27,0.91 a 2.2,2.2 0 0 0 2.28,-0.27 c 1,-0.76 2.09,-1.48 3.12,-2.18 l 1,-0.66 a 2,2 0 0 0 0.86,-1.57 c 0.05,-0.6 0.05,-1.2 0.05,-1.76 0,-0.56 0,-0.86 0,-1.29 0,-0.84 0,-1.7 0,-2.56 a 2.47,2.47 0 0 1 2,-2.44 c 2.07,-0.44 4.27,-0.86 7.13,-1.37 a 2.39,2.39 0 0 1 2.66,1.4 c 0.34,0.68 0.65,1.37 1,2.06 l 0.18,0.41 c 0.18,0.39 0.35,0.78 0.52,1.17 0.25,0.57 0.5,1.14 0.76,1.7 a 1.34,1.34 0 0 0 1,0.84 l 1.7,0.34 c 1.06,0.21 2.11,0.42 3.16,0.66 a 2.51,2.51 0 0 0 2.65,-0.85 c 0.72,-0.77 1.49,-1.51 2.22,-2.22 l 1.23,-1.2 a 2.33,2.33 0 0 1 2.77,-0.53 27.27,27.27 0 0 1 6.95,4.6 2.12,2.12 0 0 1 0.56,1.62 6.4,6.4 0 0 1 -0.47,1.88 c -0.3,0.81 -0.62,1.61 -0.94,2.41 -0.25,0.63 -0.5,1.26 -0.74,1.89 a 1.64,1.64 0 0 0 0.05,1.55 c 1,1.44 2.15,3.13 3.42,4.79 a 1.73,1.73 0 0 0 1,0.47 7.33,7.33 0 0 0 1.42,0.06 h 1.79 c 0.82,0 1.67,0 2.51,0 A 2.77,2.77 0 0 1 228,85.9 c 0.19,0.78 0.39,1.63 0.55,2.5 0.21,1.13 0.4,2.27 0.6,3.4 l 0.24,1.41 a 0.43,0.43 0 0 1 0,0.16 l -0.09,0.56 a 0.44,0.44 0 0 1 -0.05,0.15 4.69,4.69 0 0 1 -2.54,2 c -0.85,0.38 -1.68,0.73 -2.51,1.09 l -1.7,0.73 a 1.42,1.42 0 0 0 -0.85,1.09 c -0.12,0.57 -0.23,1.13 -0.35,1.7 -0.19,0.94 -0.38,1.89 -0.6,2.83 a 3,3 0 0 0 1,3.16 c 1,0.86 1.95,1.83 3.12,3 a 2.43,2.43 0 0 1 0.42,3.4 c -1.35,2.23 -2.41,3.9 -3.45,5.43 -1.2,1.75 -2,2 -4.12,1.29 l -0.13,-0.06 -1.26,-0.5 c -1,-0.39 -1.94,-0.78 -2.91,-1.19 a 2.1,2.1 0 0 0 -2.14,0.17 l -0.54,0.37 c -1.14,0.78 -2.28,1.55 -3.43,2.31 a 1.84,1.84 0 0 0 -0.82,1.47 10.84,10.84 0 0 0 -0.08,1.3 c 0,0.82 0,1.64 0,2.45 v 2 a 2.31,2.31 0 0 1 -1.5,2.2 l -0.12,0.06 a 4.24,4.24 0 0 1 -0.87,0.32 l -4.88,1 -1.9,0.38 a 2.1,2.1 0 0 1 -0.37,0.06 z m -11.08,-9.74 a 10.54,10.54 0 0 1 2.12,0.3 l 1.77,0.38 1.37,0.3 a 3.44,3.44 0 0 1 2.61,2.14 c 0.16,0.39 0.32,0.78 0.47,1.18 0.31,0.77 0.61,1.54 1,2.3 a 9.4,9.4 0 0 0 0.93,1.62 1,1 0 0 0 1.1,0.49 l 1.89,-0.38 c 1.63,-0.33 3.25,-0.65 4.87,-1 a 3.1,3.1 0 0 0 0.67,-0.25 l 0.12,-0.06 a 1.31,1.31 0 0 0 0.91,-1.28 v -2 c 0,-0.82 0,-1.64 0,-2.46 0,-0.41 0,-0.86 0.08,-1.4 a 2.83,2.83 0 0 1 1.27,-2.21 c 1.14,-0.75 2.28,-1.52 3.42,-2.3 l 0.54,-0.36 a 3.08,3.08 0 0 1 3.09,-0.27 l 2.89,1.18 1.22,0.49 v 0.52 l 0.17,-0.47 c 1.63,0.58 2,0.46 2.95,-0.9 1,-1.51 2.08,-3.17 3.42,-5.39 a 1.48,1.48 0 0 0 -0.28,-2.19 c -1.15,-1.2 -2.13,-2.16 -3.07,-3 a 4,4 0 0 1 -1.33,-4.12 c 0.21,-0.93 0.4,-1.87 0.59,-2.81 0.12,-0.57 0.23,-1.14 0.35,-1.7 a 2.43,2.43 0 0 1 1.43,-1.8 l 1.7,-0.74 c 0.83,-0.35 1.66,-0.71 2.48,-1.08 a 3.93,3.93 0 0 0 2.05,-1.46 L 228.5,93.28 228.17,92 c -0.19,-1.13 -0.39,-2.26 -0.59,-3.39 -0.16,-0.85 -0.35,-1.68 -0.54,-2.44 a 1.76,1.76 0 0 0 -1.71,-1.48 c -0.81,0 -1.65,0 -2.45,0 h -1.78 a 7.36,7.36 0 0 1 -1.62,-0.07 2.75,2.75 0 0 1 -1.61,-0.84 c -1.28,-1.68 -2.46,-3.39 -3.44,-4.84 a 2.6,2.6 0 0 1 -0.17,-2.47 l 0.75,-1.9 c 0.32,-0.79 0.63,-1.59 0.94,-2.39 a 6.1,6.1 0 0 0 0.41,-1.59 1.22,1.22 0 0 0 -0.23,-0.81 26.72,26.72 0 0 0 -6.69,-4.44 1.38,1.38 0 0 0 -1.67,0.32 c -0.4,0.41 -0.82,0.81 -1.23,1.21 -0.73,0.71 -1.48,1.45 -2.19,2.19 a 3.55,3.55 0 0 1 -3.61,1.15 c -1,-0.25 -2.08,-0.45 -3.12,-0.66 l -1.71,-0.34 a 2.39,2.39 0 0 1 -1.69,-1.4 c -0.26,-0.57 -0.51,-1.14 -0.77,-1.72 l -0.51,-1.16 -0.19,-0.41 c -0.3,-0.68 -0.6,-1.36 -0.94,-2 a 1.39,1.39 0 0 0 -1.59,-0.86 c -2.85,0.5 -5,0.92 -7.1,1.35 A 1.54,1.54 0 0 0 182,64.5 c -0.05,0.81 0,1.66 0,2.48 0,0.44 0,0.87 0,1.31 0,0.44 0,1.21 -0.05,1.84 a 3,3 0 0 1 -1.3,2.32 l -1,0.66 c -1,0.69 -2.08,1.41 -3.09,2.15 a 3.22,3.22 0 0 1 -3.24,0.4 l -2.27,-0.91 -2.37,-1 a 1.68,1.68 0 0 0 -2.31,0.67 c -1.22,1.77 -2.42,3.58 -3.57,5.38 a 1.84,1.84 0 0 0 0.26,2.74 c 0.42,0.45 0.87,0.88 1.31,1.31 0.44,0.43 0.65,0.62 1,0.94 0.58,0.59 1.1,1.16 1.58,1.73 a 2.59,2.59 0 0 1 0.59,2.2 l -0.19,1.07 c -0.24,1.33 -0.48,2.65 -0.76,4 a 3.15,3.15 0 0 1 -2,2.38 l -1.28,0.51 -1.75,0.7 a 18.64,18.64 0 0 0 -1.79,0.82 1.53,1.53 0 0 0 -0.88,1.77 c 0.42,2.14 0.86,4.29 1.3,6.43 a 3.72,3.72 0 0 0 0.29,0.75 1.39,1.39 0 0 0 1.33,1 v 0 h 3 1.5 0.31 a 3.68,3.68 0 0 1 3.63,2 c 0.46,0.76 1,1.5 1.5,2.22 0.23,0.31 0.46,0.63 0.68,1 a 3.69,3.69 0 0 1 0.36,3.79 c -0.55,1.3 -1.14,2.69 -1.67,4.1 -0.53,1.41 -0.33,1.72 0.74,2.46 1.67,1.16 3.49,2.35 5.58,3.66 a 1.53,1.53 0 0 0 2.17,-0.22 c 0.76,-0.7 1.5,-1.46 2.22,-2.19 l 0.48,-0.49 c 1.36,-1.55 2.09,-2.08 3.33,-2.08 z m 43.18,-28.55 z m -35.18,17.59 a 14.14,14.14 0 0 1 -2.32,-0.19 v 0 a 15,15 0 0 1 -10.19,-6.39 14.27,14.27 0 0 1 -2.36,-10.86 15,15 0 1 1 14.87,17.45 z m -2.16,-1.17 a 14,14 0 0 0 16,-11.67 13.87,13.87 0 0 0 -2.54,-10.44 13.94,13.94 0 0 0 -25.18,6 13.26,13.26 0 0 0 2.2,10.11 14,14 0 0 0 9.53,6 z"
     fill="#231f20"
     id="path16" />
  <path
     d="m 137.5,170.76 -1.42,2.74 c -3.72,7.16 -6.23,19.31 -13.77,26.36 C 119.53,202.46 89,215.8 89,215.8 l -3.3,-9 c 0,0 24.23,-15.31 26.3,-17.4 2.58,-2.64 13.59,-37.75 13.59,-37.75 z"
     fill="white"
     id="path18" />
  <path
     d="m 89,216.29 a 0.45,0.45 0 0 1 -0.2,0 0.47,0.47 0 0 1 -0.27,-0.28 l -3.3,-9 a 0.51,0.51 0 0 1 0.21,-0.6 c 8.35,-5.27 24.55,-15.66 26.12,-17.28 2.05,-2.1 10.42,-27.82 13.47,-37.55 a 0.51,0.51 0 0 1 0.42,-0.35 0.53,0.53 0 0 1 0.49,0.23 l 11.94,19.12 a 0.48,0.48 0 0 1 0,0.49 c 0,0 -0.53,1 -1.42,2.74 a 80,80 0 0 0 -3.27,7.74 c -2.49,6.47 -5.31,13.81 -10.6,18.75 -2.81,2.63 -32.16,15.49 -33.41,16 A 0.48,0.48 0 0 1 89,216.29 Z m -2.65,-9.29 3,8.16 c 10.65,-4.66 30.52,-13.65 32.64,-15.63 5.12,-4.78 7.9,-12 10.35,-18.38 a 79.22,79.22 0 0 1 3.31,-7.84 l 1.29,-2.49 -11.24,-17.99 c -1.88,5.95 -11,34.45 -13.38,36.92 -1.94,1.99 -22.9,15.25 -25.97,17.25 z"
     fill="#231f20"
     id="path20" />
  <path
     d="m 85.74,206.76 c 0,0 -7.44,1.24 -7.39,2.34 0.05,1.1 6,19.88 8.2,19.08 2.2,-0.8 2.45,-12.38 2.45,-12.38 z"
     fill="#231f20"
     id="path22" />
  <path
     d="m 86.41,228.7 a 1.15,1.15 0 0 1 -0.66,-0.22 c -2.82,-1.87 -7.85,-18.47 -7.9,-19.35 0,-0.39 -0.07,-1.56 7.81,-2.87 a 0.5,0.5 0 0 1 0.55,0.33 l 3.3,9 a 0.58,0.58 0 0 1 0,0.19 c -0.07,2.79 -0.46,12 -2.82,12.84 a 0.91,0.91 0 0 1 -0.28,0.08 z m -7.55,-19.55 c 0.13,0.75 1.45,5.15 3.12,9.67 3.19,8.63 4.38,8.88 4.43,8.88 1.14,-0.41 2,-6.44 2.13,-11.82 l -3.12,-8.56 c -2.91,0.51 -6.08,1.32 -6.56,1.83 z"
     fill="#231f20"
     id="path24" />
  <path
     d="m 146.41,165.18 c 0,0 0.36,1.11 0.93,2.94 2.41,7.7 8.69,28 8.89,31.07 0.25,3.81 -13.74,31.37 -13.74,31.37 L 133,228.89 c 0,0 8.48,-29.58 8.45,-32.49 0,-3.69 -17,-36.34 -17,-36.34 z"
     fill="white"
     id="path26" />
  <path
     d="m 142.49,231.06 h -0.08 l -9.48,-1.67 a 0.45,0.45 0 0 1 -0.33,-0.22 0.49,0.49 0 0 1 -0.06,-0.41 c 2.92,-10.2 8.45,-30.1 8.43,-32.34 0,-2.93 -12.25,-27.07 -17,-36.12 a 0.51,0.51 0 0 1 0,-0.54 0.52,0.52 0 0 1 0.51,-0.18 l 22,5.12 a 0.5,0.5 0 0 1 0.36,0.33 l 0.93,2.95 c 2.61,8.35 8.71,28.1 8.91,31.19 0.26,3.9 -13.22,30.5 -13.79,31.63 a 0.5,0.5 0 0 1 -0.4,0.26 z m -8.84,-2.57 8.57,1.52 c 4,-7.88 13.71,-27.82 13.51,-30.78 -0.2,-2.96 -6.84,-24.47 -8.87,-31 L 146,165.6 125.39,160.79 c 2.86,5.54 16.52,32.16 16.56,35.61 0.05,2.76 -7.12,27.96 -8.3,32.09 z"
     fill="#231f20"
     id="path28" />
  <path
     d="m 111.92,84.32 a 14.68,14.68 0 0 0 -5.74,1.6 c -3.12,1.5 -6.1,4 -6.79,7.35 -0.56,2.75 0.49,5.56 1.82,8 1.33,2.44 3,4.83 3.71,7.53 0.71,2.7 0.4,6 -1.73,7.77 a 28.66,28.66 0 0 0 8,-4.66 7.21,7.21 0 0 0 2.59,-4.62 9.28,9.28 0 0 0 -1.06,-4.28 19.21,19.21 0 0 1 -2,-6.3 c -0.15,-2.2 0.67,-4.62 2.57,-5.74 1.67,-1 7.12,-0.89 6.26,-4 -0.65,-2.32 -5.68,-2.73 -7.63,-2.65 z"
     fill="white"
     id="path30" />
  <path
     d="m 103.19,117.1 a 0.5,0.5 0 0 1 -0.33,-0.88 c 2.14,-1.82 2.19,-5 1.58,-7.26 a 24.54,24.54 0 0 0 -2.6,-5.51 c -0.36,-0.64 -0.73,-1.27 -1.07,-1.91 -1.77,-3.29 -2.36,-6 -1.87,-8.37 0.85,-4.15 4.79,-6.61 7.06,-7.7 a 15,15 0 0 1 5.94,-1.65 v 0 c 2,-0.08 7.38,0.32 8.15,3.09 a 2.21,2.21 0 0 1 -0.18,1.83 c -0.71,1.22 -2.58,1.66 -4.22,2.05 a 9.09,9.09 0 0 0 -2.08,0.64 c -1.91,1.12 -2.45,3.55 -2.33,5.28 a 18.06,18.06 0 0 0 1.79,5.86 l 0.12,0.27 a 9.82,9.82 0 0 1 1.1,4.52 7.68,7.68 0 0 1 -2.75,5 29.22,29.22 0 0 1 -8.11,4.75 0.51,0.51 0 0 1 -0.2,-0.01 z m 8.75,-32.28 a 14.08,14.08 0 0 0 -5.55,1.55 c -2.1,1 -5.75,3.27 -6.51,7 -0.44,2.17 0.12,4.62 1.77,7.7 0.34,0.63 0.7,1.25 1.06,1.88 a 25.17,25.17 0 0 1 2.69,5.75 9.14,9.14 0 0 1 -0.52,6.58 23.05,23.05 0 0 0 5.94,-3.7 6.89,6.89 0 0 0 2.43,-4.29 8.74,8.74 0 0 0 -1,-4.05 l -0.12,-0.27 a 18.89,18.89 0 0 1 -1.87,-6.19 6.59,6.59 0 0 1 2.82,-6.21 9.38,9.38 0 0 1 2.36,-0.75 c 1.38,-0.33 3.09,-0.74 3.59,-1.59 a 1.29,1.29 0 0 0 0.08,-1 c -0.55,-2 -5.13,-2.44 -7.15,-2.36 z"
     fill="#231f20"
     id="path32" />
  <path
     d="m 114.36,85 a 5.86,5.86 0 0 0 -0.71,3.79 4.47,4.47 0 0 0 0.92,2.42 3.45,3.45 0 0 0 2.86,1.13 1.93,1.93 0 0 0 1.29,-0.53 2.24,2.24 0 0 0 0.47,-1.08 C 119.77,88 117.76,79.64 114.36,85 Z"
     fill="#231f20"
     id="path34" />
  <path
     d="m 117.16,92.85 a 3.92,3.92 0 0 1 -3,-1.32 4.88,4.88 0 0 1 -1,-2.68 6.37,6.37 0 0 1 0.79,-4.11 v 0 c 1.32,-2.09 2.48,-2.17 3.21,-1.87 2.08,0.84 3,5.85 2.53,8 a 2.7,2.7 0 0 1 -0.59,1.32 2.38,2.38 0 0 1 -1.62,0.68 z m -2.37,-7.58 a 5.36,5.36 0 0 0 -0.64,3.46 3.91,3.91 0 0 0 0.8,2.16 3,3 0 0 0 2.45,1 1.54,1.54 0 0 0 1,-0.37 1.84,1.84 0 0 0 0.34,-0.85 c 0.39,-1.84 -0.53,-6.26 -1.92,-6.83 -0.69,-0.27 -1.47,0.65 -2,1.48 z"
     fill="#231f20"
     id="path36" />
  <path
     d="m 132.28,103 c -0.81,1 -2,1.48 -4.06,1.28 a 10.28,10.28 0 0 1 -4.65,-1.88 17.61,17.61 0 0 1 -7.28,-17 c 1.09,-6.55 7.61,-13.07 14.64,-10.58 a 8.68,8.68 0 0 1 5.17,5.16 2.59,2.59 0 0 1 2.74,0.7 c 1.82,1.81 1.75,3.75 0.78,5.93 -1.6,3.57 -3.56,7 -5,10.62 -0.83,2.04 -1.15,4.33 -2.34,5.77 z"
     fill="white"
     id="path38" />
  <path
     d="m 129,104.77 c -0.28,0 -0.57,0 -0.87,0 a 10.55,10.55 0 0 1 -4.88,-2 18,18 0 0 1 -7.49,-17.53 14.9,14.9 0 0 1 6.8,-10 9.84,9.84 0 0 1 8.5,-0.92 9.17,9.17 0 0 1 5.3,5 3.25,3.25 0 0 1 2.79,1 c 2.35,2.33 1.63,4.81 0.89,6.48 -0.66,1.48 -1.39,2.94 -2.1,4.36 -1,2 -2,4.12 -2.89,6.25 -0.27,0.68 -0.49,1.4 -0.7,2.09 a 10.72,10.72 0 0 1 -1.73,3.85 v 0 a 4.44,4.44 0 0 1 -3.62,1.42 z m -1.21,-30.08 a 9.31,9.31 0 0 0 -4.68,1.31 13.91,13.91 0 0 0 -6.33,9.35 17.21,17.21 0 0 0 7.07,16.55 9.72,9.72 0 0 0 4.42,1.79 3.86,3.86 0 0 0 3.63,-1.11 v 0 a 10,10 0 0 0 1.54,-3.49 c 0.21,-0.71 0.44,-1.45 0.72,-2.17 0.86,-2.17 1.91,-4.28 2.92,-6.32 0.71,-1.41 1.43,-2.87 2.08,-4.33 1,-2.28 0.82,-3.88 -0.67,-5.36 a 2.12,2.12 0 0 0 -2.19,-0.6 0.51,0.51 0 0 1 -0.67,-0.29 8.07,8.07 0 0 0 -4.86,-4.85 8.7,8.7 0 0 0 -2.94,-0.48 z"
     fill="#231f20"
     id="path40" />
  <path
     d="m 137.49,87.83 c 0,0 4.26,3.62 3.92,4.72 -0.34,1.1 -2.56,1.09 -2.56,1.09"
     fill="white"
     id="path42" />
  <path
     d="m 138.88,94.14 v 0 a 0.51,0.51 0 0 1 -0.5,-0.51 0.48,0.48 0 0 1 0.51,-0.49 c 0.54,0 1.9,-0.18 2.07,-0.73 0.17,-0.55 -1.71,-2.46 -3.76,-4.2 a 0.500025,0.500025 0 1 1 0.65,-0.76 c 1.68,1.43 4.45,4 4.07,5.25 -0.38,1.25 -2.64,1.44 -3.04,1.44 z"
     fill="#231f20"
     id="path44" />
  <path
     d="m 139.86,112.27 c -4.78,0.38 -13,-4.42 -13,-4.6 a 96.39,96.39 0 0 1 -2.15,-9.42 c 0,0 3.23,-0.92 4,-5.31 0.77,-4.39 4.85,-5.08 6.43,-10.85 2.33,1 2.73,4.4 3.33,6.52 q 1.26,4.48 2.31,9 c 0.45,1.92 -4.42,3.38 -5.45,3.06 1.1,2.84 1.1,2.84 4.53,11.6 z"
     fill="white"
     id="path46" />
  <path
     d="m 139.33,112.79 c -4.82,0 -12.75,-4.31 -13,-5 a 94.43,94.43 0 0 1 -2.18,-9.5 0.51,0.51 0 0 1 0.36,-0.57 c 0.12,0 3,-0.9 3.67,-4.91 a 9.59,9.59 0 0 1 2.91,-5 13.12,13.12 0 0 0 3.57,-5.81 0.51,0.51 0 0 1 0.68,-0.33 c 2.17,0.93 2.81,3.57 3.32,5.7 0.1,0.41 0.19,0.8 0.29,1.15 0.84,3 1.62,6 2.32,9 a 1.91,1.91 0 0 1 -0.71,1.86 9,9 0 0 1 -4.49,1.83 c 0.86,2.21 1.13,2.92 4.26,10.9 a 0.51,0.51 0 0 1 -0.05,0.45 0.48,0.48 0 0 1 -0.38,0.23 5.24,5.24 0 0 1 -0.57,0 z m -12.06,-5.42 c 0.87,0.58 7.46,4.34 11.87,4.42 -3.17,-8.1 -3.2,-8.17 -4.27,-10.94 a 0.5,0.5 0 0 1 0.1,-0.52 0.51,0.51 0 0 1 0.51,-0.14 7.36,7.36 0 0 0 4.39,-1.56 c 0.35,-0.33 0.49,-0.63 0.43,-0.9 -0.7,-3 -1.48,-6 -2.31,-9 -0.11,-0.36 -0.2,-0.77 -0.3,-1.19 -0.42,-1.71 -0.92,-3.79 -2.24,-4.73 a 14.51,14.51 0 0 1 -3.58,5.68 8.64,8.64 0 0 0 -2.66,4.51 7,7 0 0 1 -4,5.53 c 0.31,1.47 1.22,6.22 2.06,8.84 z"
     fill="#231f20"
     id="path48" />
  <path
     d="m 140.07,95.42 a 2.53,2.53 0 0 1 -3.82,0.06"
     fill="white"
     id="path50" />
  <path
     d="m 138.06,96.86 a 3,3 0 0 1 -2.17,-1 0.50224496,0.50224496 0 0 1 0.73,-0.69 1.86,1.86 0 0 0 1.46,0.73 2.6,2.6 0 0 0 1.62,-0.78 0.5,0.5 0 0 1 0.74,0.67 3.52,3.52 0 0 1 -2.35,1.11 z"
     fill="#231f20"
     id="path52" />
  <path
     d="m 135.33,100.67 a 5.39,5.39 0 0 1 -4.22,-0.78 c 0,0 1.48,4.51 5.74,4.7 z"
     fill="#231f20"
     id="path54" />
  <path
     d="m 136.85,105.09 v 0 c -4.55,-0.2 -6.13,-4.85 -6.19,-5 a 0.49,0.49 0 0 1 0.19,-0.57 0.51,0.51 0 0 1 0.6,0 4.93,4.93 0 0 0 3.79,0.69 0.49,0.49 0 0 1 0.58,0.3 l 1.52,3.92 a 0.5,0.5 0 0 1 -0.47,0.68 z m -4.64,-4 a 5.92,5.92 0 0 0 3.88,3 L 135,101.24 A 6.51,6.51 0 0 1 132.21,101 Z"
     fill="#231f20"
     id="path56" />
  <ellipse
     cx="114.73486"
     cy="113.41306"
     rx="0.43000001"
     ry="1.11"
     transform="rotate(-12.17)"
     fill="#231f20"
     id="ellipse58" />
  <path
     d="m 131.87,91.11 a 4.22,4.22 0 0 0 -1.43,-1.8 6.11,6.11 0 0 0 -1.47,-1 2,2 0 0 0 -1.74,0 1.89,1.89 0 0 0 -0.9,1.26 3.56,3.56 0 0 0 0.06,1.59 6.64,6.64 0 0 0 4.61,4.74 l -0.21,-0.13"
     fill="white"
     id="path60" />
  <path
     d="m 131,96.4 a 0.3,0.3 0 0 1 -0.13,0 7.19,7.19 0 0 1 -4.94,-5.17 4,4 0 0 1 -0.06,-1.81 2.35,2.35 0 0 1 1.13,-1.61 2.51,2.51 0 0 1 2.19,0 6.44,6.44 0 0 1 1.59,1.11 4.71,4.71 0 0 1 1.58,2 0.52201533,0.52201533 0 0 1 -1,0.3 3.76,3.76 0 0 0 -1.27,-1.57 5.65,5.65 0 0 0 -1.35,-1 1.55,1.55 0 0 0 -1.31,0 1.37,1.37 0 0 0 -0.64,0.93 3,3 0 0 0 0.05,1.36 6.22,6.22 0 0 0 3.8,4.3 0.49,0.49 0 0 1 0.35,0.07 l 0.21,0.13 a 0.48,0.48 0 0 1 0.2,0.62 0.49,0.49 0 0 1 -0.4,0.34 z"
     fill="#231f20"
     id="path62" />
  <path
     d="m 143.58,110.34 c 0,0 -14,-7.06 -18.9,-2.35 -4.9,4.71 -4.68,20.06 -4.93,45.75 l 30.13,-2.09 c 0,0 0.46,-37.58 -6.3,-41.31 z"
     fill="#68e1fd"
     id="path64"
     style="fill:#36c" />
  <path
     d="m 155.52,120.32 c 2.06,0.1 21.63,2.49 23.69,0.54 2.06,-1.95 6.29,-4.71 6.55,-4 0.26,0.71 -2.57,4.22 -2.57,4.22 0,0 6.31,-2 7.26,-1 0.95,1 -1.51,5.39 -3,6.69 -0.4,0.36 -4.56,1.21 -7,1.92 -11,3.17 -25.82,3.14 -30,0.23 -5.76,-4 -22,-11.76 -22.94,-13.13 -0.94,-1.37 1.86,-10.3 8.8,-6.47 0,-0.04 17.16,10.91 19.21,11 z"
     fill="white"
     id="path66" />
  <path
     d="m 162.6,131.55 c -5.55,0 -10.27,-0.75 -12.43,-2.26 -2.93,-2 -8.6,-5.06 -13.59,-7.73 -5.71,-3 -9,-4.79 -9.48,-5.53 -0.72,-1 0.05,-4.25 1.85,-6.26 1.15,-1.28 3.66,-3.1 7.6,-0.93 6.62,4.22 17.59,10.92 19,11 0.38,0 1.34,0.12 2.67,0.24 4.73,0.47 19.12,1.87 20.64,0.44 1.52,-1.43 5.7,-4.51 6.89,-4.23 a 0.64,0.64 0 0 1 0.48,0.42 c 0.2,0.53 -0.37,1.69 -1.69,3.46 2.26,-0.63 5.43,-1.31 6.27,-0.46 a 1.41,1.41 0 0 1 0.35,1.1 c 0,1.82 -2.12,5.22 -3.35,6.31 -0.31,0.28 -1.25,0.53 -3.88,1.17 -1.18,0.29 -2.39,0.59 -3.36,0.86 a 68,68 0 0 1 -17.97,2.4 z m -29.54,-22.72 a 4.45,4.45 0 0 0 -3.36,1.61 c -1.75,1.94 -2.07,4.61 -1.78,5 0.41,0.58 5,3 9.13,5.22 5,2.68 10.71,5.72 13.69,7.79 3.75,2.63 18.13,3 29.55,-0.3 1,-0.28 2.22,-0.58 3.4,-0.87 a 28.88,28.88 0 0 0 3.48,-1 c 1.16,-1 3,-4.17 3,-5.58 a 0.62,0.62 0 0 0 -0.06,-0.37 c -0.43,-0.39 -3.59,0.16 -6.76,1.17 a 0.51,0.51 0 0 1 -0.56,-0.2 0.48,0.48 0 0 1 0,-0.59 23.28,23.28 0 0 0 2.36,-3.42 23.84,23.84 0 0 0 -5.61,3.87 c -1.63,1.54 -11.26,0.83 -21.43,-0.16 -1.31,-0.13 -2.26,-0.22 -2.62,-0.24 -2.13,-0.1 -17.69,-10 -19.46,-11.12 a 6.22,6.22 0 0 0 -2.97,-0.81 z"
     fill="#231f20"
     id="path68" />
  <path
     d="M 119.75,153.74 105.44,189 c 0,0 36.72,12.58 53.56,9.67 l -9.12,-47 z"
     fill="#231f20"
     id="path70" />
  <path
     d="m 153.11,199.58 c -18,0 -46.49,-9.68 -47.83,-10.14 a 0.51,0.51 0 0 1 -0.3,-0.26 0.51,0.51 0 0 1 0,-0.4 l 14.31,-35.23 a 0.49,0.49 0 0 1 0.43,-0.31 l 30.13,-2.09 a 0.51,0.51 0 0 1 0.52,0.4 l 9.12,47 a 0.56,0.56 0 0 1 -0.08,0.38 0.52,0.52 0 0 1 -0.33,0.21 35.46,35.46 0 0 1 -5.97,0.44 z m -47,-10.91 c 4.41,1.46 36.65,11.92 52.31,9.56 l -8.94,-46 -29.37,2 z"
     fill="#231f20"
     id="path72" />
  <path
     d="m 133,228.89 c 0,0 -2.66,7.06 -1.67,7.57 0.99,0.51 20.2,4.77 20.62,2.45 0.42,-2.32 -9.48,-8.35 -9.48,-8.35 z"
     fill="#231f20"
     id="path74" />
  <path
     d="m 149.47,240.1 c -5.62,0 -17.68,-2.85 -18.35,-3.19 -0.34,-0.18 -1.38,-0.71 1.43,-8.2 a 0.51,0.51 0 0 1 0.56,-0.31 l 9.47,1.67 a 0.49,0.49 0 0 1 0.17,0.06 c 2.39,1.46 10.16,6.4 9.71,8.87 a 1.05,1.05 0 0 1 -0.63,0.76 5.84,5.84 0 0 1 -2.36,0.34 z M 131.65,236 a 99.44,99.44 0 0 0 9.93,2.15 c 9.07,1.56 9.88,0.64 9.91,0.6 0.21,-1.19 -4.58,-4.94 -9.18,-7.75 l -9,-1.58 c -0.98,2.81 -1.86,5.96 -1.66,6.58 z m 0,0.05 z"
     fill="#231f20"
     id="path76" />
  <path
     d="m 302.37,195.13 c 0.24,0.72 2.62,4.77 2.13,5.55 -0.49,0.78 -8.21,5.69 -5.93,6.42 2.28,0.73 15.36,-1 15.36,-1 L 306,185.3 Z"
     fill="#231f20"
     id="path78" />
  <path
     d="m 300.62,207.77 a 8.45,8.45 0 0 1 -2.2,-0.19 1,1 0 0 1 -0.75,-0.78 c -0.19,-1.05 1.37,-2.45 4.71,-5 a 16.82,16.82 0 0 0 1.7,-1.38 c 0.12,-0.48 -1.13,-2.95 -1.6,-3.88 -0.32,-0.64 -0.51,-1 -0.59,-1.24 a 0.53,0.53 0 0 1 0,-0.33 l 3.65,-9.83 a 0.5,0.5 0 0 1 0.47,-0.33 v 0 a 0.49,0.49 0 0 1 0.46,0.33 l 7.92,20.75 a 0.53,0.53 0 0 1 0,0.44 0.5,0.5 0 0 1 -0.36,0.24 c -1.13,0.13 -9.18,1.2 -13.41,1.2 z m -2,-1.17 h 0.07 c 1.69,0.54 10.52,-0.45 14.52,-1 l -7.21,-18.88 -3.12,8.4 c 0.1,0.22 0.28,0.58 0.47,1 1.4,2.75 2,4.18 1.55,4.87 a 10.8,10.8 0 0 1 -1.93,1.64 c -1.16,0.86 -4.26,3.23 -4.32,3.97 z"
     fill="#231f20"
     id="path80" />
  <path
     d="m 265.47,191.12 c 0,0 4.53,13.06 3.77,13.37 -0.76,0.31 -20,4.72 -19.13,3.55 0.87,-1.17 9.78,-5.84 9.88,-5.3 0.1,0.54 -1.2,-6.34 -1.2,-6.34 z"
     fill="#231f20"
     id="path82" />
  <path
     d="m 250.7,208.66 c -0.53,0 -0.88,-0.06 -1,-0.2 a 0.59,0.59 0 0 1 0,-0.71 c 0.62,-0.88 7.41,-4.77 9.71,-5.45 -0.12,-0.54 -0.28,-1.36 -0.52,-2.62 l -0.6,-3.19 a 0.47,0.47 0 0 1 0.18,-0.48 l 6.68,-5.28 a 0.49,0.49 0 0 1 0.45,-0.09 0.5,0.5 0 0 1 0.33,0.32 c 4.69,13.5 4,13.8 3.49,14 -0.14,0.04 -14.69,3.7 -18.72,3.7 z m 9.06,-5.43 a 53.3,53.3 0 0 0 -8.49,4.48 c 3.6,-0.36 15.61,-3.06 17.56,-3.62 -0.06,-1.25 -1.79,-6.87 -3.6,-12.14 l -5.9,4.66 c 0.23,1.18 1.06,5.53 1.15,6 v 0 0 a 0.52,0.52 0 0 1 -0.4,0.59 c -0.08,0.09 -0.23,0.11 -0.32,0.03 z m -0.2,-0.38 h -0.05 a 0.39,0.39 0 0 0 0.16,0.26 1.69,1.69 0 0 1 -0.11,-0.26 z"
     fill="#231f20"
     id="path84" />
  <path
     d="m 258.27,114.17 c 0,0 -13.41,27.73 -13.58,36.51 -0.17,8.78 11.31,45.72 11.31,45.72 l 11.7,-1.94 c 0,0 -8.72,-36.92 -7.4,-40.78 1.32,-3.86 11.38,-28.68 11.38,-28.68 0,0 4,21.29 6.78,29.13 2.78,7.84 20.6,41.47 20.6,41.47 l 12.25,-2.36 c 0,0 -16.23,-37.62 -16.83,-44.11 -0.6,-6.49 -3.79,-41.19 -3.79,-41.19 z"
     fill="#231f20"
     id="path86" />
  <path
     d="m 256,196.9 a 0.5,0.5 0 0 1 -0.48,-0.35 c -0.47,-1.51 -11.51,-37.11 -11.34,-45.88 0.17,-8.77 13.08,-35.58 13.63,-36.72 a 0.5,0.5 0 0 1 0.36,-0.27 l 32.41,-6.23 a 0.51,0.51 0 0 1 0.4,0.09 0.55,0.55 0 0 1 0.2,0.35 c 0,0 3.19,34.7 3.79,41.2 0.59,6.34 16.63,43.58 16.79,43.95 a 0.52,0.52 0 0 1 0,0.44 0.51,0.51 0 0 1 -0.35,0.25 l -12.25,2.36 a 0.48,0.48 0 0 1 -0.53,-0.26 C 297.9,194.46 280.8,162.09 278,154.3 c -2.34,-6.5 -5.48,-22.35 -6.48,-27.53 -2.23,5.52 -9.62,23.84 -10.73,27.07 -1,3.06 5,30.27 7.41,40.5 a 0.45,0.45 0 0 1 -0.07,0.39 0.45,0.45 0 0 1 -0.33,0.22 l -11.7,1.94 z m 2.6,-82.29 c -1.27,2.66 -13.26,27.92 -13.42,36.08 -0.16,8.16 9.9,41.05 11.16,45.15 l 10.75,-1.79 c -1.32,-5.63 -8.55,-36.78 -7.26,-40.53 1.29,-3.75 11,-27.69 11.38,-28.7 a 0.48,0.48 0 0 1 0.51,-0.31 0.49,0.49 0 0 1 0.44,0.4 c 0,0.21 4,21.34 6.76,29.05 2.63,7.31 18.55,37.58 20.4,41.08 l 11.27,-2.17 c -2.11,-4.92 -16.05,-37.56 -16.62,-43.69 -0.57,-6.13 -3.33,-36.19 -3.74,-40.64 z"
     fill="#231f20"
     id="path88" />
  <polygon
     points="244.03,91.53 258.72,88 256.71,67.37 241.08,75.51 "
     fill="#68e1fd"
     id="polygon90"
     style="fill:#36c" />
  <path
     d="m 256.71,67.37 c 0.93,-1.27 20.2,-5.69 26,-0.86 5.8,4.83 9.73,39 10.63,49.49 l -37.92,2.75 c 0,0 -3.85,-44.37 1.29,-51.38 z"
     fill="#68e1fd"
     id="path92"
     style="fill:#36c" />
  <path
     d="m 255.16,115.53 a 0.49,0.49 0 0 1 -0.49,-0.46 c -0.1,-1.26 -2.39,-30.93 -0.71,-38.26 a 0.5,0.5 0 0 1 0.6,-0.37 0.49,0.49 0 0 1 0.37,0.6 c -1.64,7.17 0.71,37.65 0.73,37.95 a 0.5,0.5 0 0 1 -0.46,0.54 z"
     fill="#231f20"
     id="path94" />
  <path
     d="m 267.77,60.08 a 11.82,11.82 0 0 0 5.66,-2.9 4.72,4.72 0 0 0 1.5,-2.43 2.25,2.25 0 0 0 -1.11,-2.45 3.31,3.31 0 0 0 1.67,-2.56 5.84,5.84 0 0 0 -0.56,-3.1 A 4,4 0 0 0 272,44 c 0.58,-1 1.18,-2.23 0.77,-3.34 a 3.79,3.79 0 0 0 -1.07,-1.38 18.35,18.35 0 0 0 -2.79,-2.1 c -0.53,-0.32 -1.21,-0.63 -1.74,-0.29 a 6,6 0 0 0 -4.35,-4.64 5,5 0 0 0 -3.26,0.16 19.3,19.3 0 0 0 -2.81,2.1 6.07,6.07 0 0 0 -5.4,0.76 4.17,4.17 0 0 0 -1.27,4 9.14,9.14 0 0 0 -3.08,2.41 4.42,4.42 0 0 0 -0.94,3.7 3,3 0 0 0 2.83,2.31 3.17,3.17 0 0 0 -0.46,4.16 3.87,3.87 0 0 0 4.11,1.34 1.25,1.25 0 0 1 0.63,-0.08 1.5,1.5 0 0 1 0.65,0.45 c 0.64,0.57 1.48,0.45 2.17,0.84 a 20.76,20.76 0 0 1 2.64,2.16 30.81,30.81 0 0 0 2.67,1.9 17.89,17.89 0 0 0 3.1,2 c 1,0.39 1.63,0 2.63,-0.25 z"
     fill="white"
     id="path96" />
  <path
     d="m 265.2,61.17 a 2.78,2.78 0 0 1 -1,-0.19 8.67,8.67 0 0 1 -2.2,-1.38 c -0.33,-0.25 -0.66,-0.5 -1,-0.72 a 29.05,29.05 0 0 1 -2.72,-1.94 c -0.27,-0.22 -0.56,-0.48 -0.84,-0.74 a 10.76,10.76 0 0 0 -1.72,-1.36 2.75,2.75 0 0 0 -0.81,-0.26 3.2,3.2 0 0 1 -1.45,-0.64 l -0.13,-0.13 a 1.37,1.37 0 0 0 -0.29,-0.22 1.16,1.16 0 0 0 -0.32,0.06 4.36,4.36 0 0 1 -4.72,-1.51 3.75,3.75 0 0 1 -0.11,-4.09 3.65,3.65 0 0 1 -2.34,-2.55 4.92,4.92 0 0 1 1,-4.13 8.84,8.84 0 0 1 2.99,-2.37 4.68,4.68 0 0 1 1.5,-4.14 6.52,6.52 0 0 1 5.61,-1 21,21 0 0 1 2.74,-2 5.49,5.49 0 0 1 3.58,-0.18 6.54,6.54 0 0 1 4.59,4.48 2.79,2.79 0 0 1 1.64,0.51 19.18,19.18 0 0 1 2.85,2.15 4.11,4.11 0 0 1 1.21,1.58 3.93,3.93 0 0 1 -0.49,3.17 4.86,4.86 0 0 1 2.62,2.79 6.36,6.36 0 0 1 0.6,3.36 4,4 0 0 1 -1.3,2.51 2.92,2.92 0 0 1 0.73,2.53 5.13,5.13 0 0 1 -1.64,2.7 12.44,12.44 0 0 1 -5.89,3 v 0 l -0.77,0.18 c -0.23,0 -0.44,0.12 -0.64,0.18 a 4.53,4.53 0 0 1 -1.28,0.35 z M 253,52.59 h 0.24 a 1.52,1.52 0 0 1 0.76,0.47 l 0.11,0.1 a 2.18,2.18 0 0 0 1,0.41 4,4 0 0 1 1.06,0.37 10.61,10.61 0 0 1 1.91,1.49 c 0.27,0.25 0.54,0.49 0.81,0.71 a 30.08,30.08 0 0 0 2.67,1.86 c 0.35,0.24 0.7,0.5 1.05,0.77 a 8,8 0 0 0 1.95,1.23 2.19,2.19 0 0 0 1.63,-0.07 c 0.22,-0.07 0.45,-0.14 0.71,-0.2 l 0.75,-0.17 v 0 a 11.49,11.49 0 0 0 5.43,-2.78 4.17,4.17 0 0 0 1.36,-2.16 1.75,1.75 0 0 0 -0.82,-1.9 0.52,0.52 0 0 1 -0.3,-0.44 0.51,0.51 0 0 1 0.28,-0.46 2.88,2.88 0 0 0 1.4,-2.19 5.41,5.41 0 0 0 -0.52,-2.83 c -0.29,-0.66 -1.12,-2.21 -2.51,-2.36 a 0.47,0.47 0 0 1 -0.39,-0.27 0.49,0.49 0 0 1 0,-0.47 c 0.53,-0.94 1.07,-2 0.74,-2.92 a 3.24,3.24 0 0 0 -0.94,-1.18 18,18 0 0 0 -2.71,-2 c -0.39,-0.24 -0.91,-0.49 -1.21,-0.3 a 0.49,0.49 0 0 1 -0.47,0 0.46,0.46 0 0 1 -0.29,-0.37 5.56,5.56 0 0 0 -4,-4.24 4.49,4.49 0 0 0 -2.94,0.15 27.78,27.78 0 0 0 -2.55,1.87 0.5,0.5 0 0 1 -0.62,0.23 5.55,5.55 0 0 0 -4.89,0.67 3.63,3.63 0 0 0 -1.11,3.54 0.5,0.5 0 0 1 -0.26,0.56 8.42,8.42 0 0 0 -3,2.25 3.94,3.94 0 0 0 -0.86,3.27 2.49,2.49 0 0 0 2.32,1.93 0.46,0.46 0 0 1 0.49,0.32 0.48,0.48 0 0 1 -0.15,0.56 2.67,2.67 0 0 0 -0.36,3.49 3.38,3.38 0 0 0 3.57,1.15 2.27,2.27 0 0 1 0.66,-0.09 z"
     fill="#231f20"
     id="path98" />
  <path
     d="m 253.16,53.93 c 0,0 -1.88,5.09 -1.07,5.86 0.81,0.77 2.68,-0.3 2.68,-0.3"
     fill="white"
     id="path100" />
  <path
     d="m 252.91,60.57 a 1.64,1.64 0 0 1 -1.16,-0.42 c -0.92,-0.87 0.19,-4.38 0.94,-6.39 a 0.5,0.5 0 0 1 0.64,-0.3 0.52,0.52 0 0 1 0.3,0.65 c -0.9,2.43 -1.45,4.92 -1.18,5.33 0.27,0.41 1.59,-0.11 2.07,-0.39 a 0.51,0.51 0 0 1 0.68,0.19 0.49,0.49 0 0 1 -0.18,0.68 4.86,4.86 0 0 1 -2.11,0.65 z"
     fill="#231f20"
     id="path102" />
  <path
     d="m 251.84,44.1 a 1.41,1.41 0 0 0 -0.45,0.84 9.25,9.25 0 0 0 0,3.44 52.72,52.72 0 0 0 1.36,6.68 c 0.7,2.92 1.48,5.82 2.32,8.7 0.53,1.83 5.34,0.75 6.06,0 l 1,7.49 c 0,0 2.45,0.1 5.9,-2.6 3.45,-2.7 3.2,-3.65 3.2,-3.65 l -2.3,-8.37 c 0,0 -3.17,0.76 -5.93,-2.57 -0.44,-0.54 -0.77,-1.45 -1.3,-1.87 -0.53,-0.42 -1.45,-0.47 -2,-1.21 a 2.77,2.77 0 0 1 -0.43,-2.43 c 0.05,-0.18 0.12,-0.4 0,-0.54 a 0.73,0.73 0 0 0 -0.3,-0.12 2.33,2.33 0 0 1 -1.7,-2.89 c -1.21,0.28 -2.3,-0.74 -3.13,-1.68 0.26,0.3 -1.87,0.53 -1.9,0.55 a 1.15,1.15 0 0 0 -0.4,0.23 z"
     fill="white"
     id="path104" />
  <path
     d="M 262.08,71.75 H 262 a 0.49,0.49 0 0 1 -0.47,-0.43 l -0.87,-6.75 a 8.57,8.57 0 0 1 -4.64,0.57 1.83,1.83 0 0 1 -1.5,-1.24 c -0.84,-2.87 -1.62,-5.81 -2.33,-8.72 l -0.15,-0.63 a 47.18,47.18 0 0 1 -1.22,-6.11 9.88,9.88 0 0 1 0.06,-3.63 1.84,1.84 0 0 1 0.63,-1.11 v 0 a 1.7,1.7 0 0 1 0.54,-0.27 h 0.18 a 8.93,8.93 0 0 0 1.44,-0.27 0.49,0.49 0 0 1 0.11,-0.14 0.5,0.5 0 0 1 0.71,0 v 0 c 0.73,0.83 1.69,1.75 2.64,1.52 a 0.51,0.51 0 0 1 0.48,0.15 0.51,0.51 0 0 1 0.11,0.49 1.74,1.74 0 0 0 0.19,1.39 1.79,1.79 0 0 0 1.11,0.85 1,1 0 0 1 0.56,0.26 1,1 0 0 1 0.13,1 2.23,2.23 0 0 0 0.35,2 1.89,1.89 0 0 0 0.94,0.6 3.75,3.75 0 0 1 1,0.52 4.22,4.22 0 0 1 0.92,1.23 6.77,6.77 0 0 0 0.46,0.71 c 2.51,3 5.3,2.42 5.42,2.4 a 0.5,0.5 0 0 1 0.6,0.35 l 2.3,8.38 c 0.08,0.41 -0.12,1.54 -3.45,4.15 -3.33,2.61 -5.78,2.73 -6.17,2.73 z m -1,-8.49 a 0.39,0.39 0 0 1 0.15,0 0.48,0.48 0 0 1 0.34,0.41 l 0.91,7 a 11.08,11.08 0 0 0 5.16,-2.47 c 2.63,-2.06 3,-3 3.07,-3.18 l -2.16,-7.87 a 6.86,6.86 0 0 1 -5.94,-2.8 5.63,5.63 0 0 1 -0.55,-0.85 3.53,3.53 0 0 0 -0.69,-0.95 2.33,2.33 0 0 0 -0.72,-0.37 2.92,2.92 0 0 1 -1.37,-0.92 3.28,3.28 0 0 1 -0.51,-2.89 v -0.06 a 2.59,2.59 0 0 1 -1.72,-1.28 2.82,2.82 0 0 1 -0.4,-1.5 4.23,4.23 0 0 1 -2.58,-1.53 9.33,9.33 0 0 1 -1.71,0.34 0.65,0.65 0 0 0 -0.25,0.11 v 0 c -0.1,0.08 -0.17,0.21 -0.27,0.57 a 8.87,8.87 0 0 0 0,3.25 48.1,48.1 0 0 0 1.2,6 l 0.15,0.63 c 0.71,2.9 1.48,5.82 2.32,8.68 0.07,0.26 0.33,0.44 0.77,0.55 a 7.09,7.09 0 0 0 4.44,-0.76 0.51,0.51 0 0 1 0.37,-0.11 z M 251.84,44.1 Z"
     fill="#231f20"
     id="path106" />
  <path
     d="m 260.71,53 a 4,4 0 0 1 0.35,-2.2 5.29,5.29 0 0 1 0.75,-1.57 1.93,1.93 0 0 1 1.46,-0.85 1.83,1.83 0 0 1 1.36,0.64 3.46,3.46 0 0 1 0.7,1.36 6.41,6.41 0 0 1 -1.59,6.24 l 0.12,-0.21"
     fill="white"
     id="path108" />
  <path
     d="m 263.74,57.1 a 0.47,0.47 0 0 1 -0.3,-0.1 0.5,0.5 0 0 1 -0.13,-0.65 l 0.09,-0.16 v 0 a 5.94,5.94 0 0 0 1.42,-5.7 3,3 0 0 0 -0.59,-1.17 1.35,1.35 0 0 0 -1,-0.47 1.46,1.46 0 0 0 -1.07,0.65 5.3,5.3 0 0 0 -0.68,1.44 3.5,3.5 0 0 0 -0.33,1.92 0.52,0.52 0 0 1 -0.39,0.6 0.49,0.49 0 0 1 -0.59,-0.38 4.38,4.38 0 0 1 0.37,-2.47 5.71,5.71 0 0 1 0.82,-1.71 2.43,2.43 0 0 1 1.85,-1 2.31,2.31 0 0 1 1.74,0.8 3.9,3.9 0 0 1 0.81,1.56 7,7 0 0 1 -1.67,6.74 0.5,0.5 0 0 1 -0.35,0.1 z"
     fill="#231f20"
     id="path110" />
  <path
     d="m 261.09,63.76 a 8,8 0 0 0 3.06,-3.34 c 0,0 0.88,4.49 -2.63,6.68 z"
     fill="#231f20"
     id="path112" />
  <path
     d="m 261.52,67.6 a 0.59,0.59 0 0 1 -0.22,0 0.52,0.52 0 0 1 -0.28,-0.39 l -0.43,-3.34 a 0.5,0.5 0 0 1 0.24,-0.49 7.69,7.69 0 0 0 2.86,-3.08 0.47,0.47 0 0 1 0.51,-0.32 0.49,0.49 0 0 1 0.44,0.4 c 0,0.2 0.9,4.85 -2.86,7.19 a 0.5,0.5 0 0 1 -0.26,0.03 z m 0.1,-3.59 0.29,2.18 a 5.75,5.75 0 0 0 1.83,-4.09 10,10 0 0 1 -2.12,1.9 z"
     fill="#231f20"
     id="path114" />
  <ellipse
     cx="230.99289"
     cy="116.29449"
     rx="0.41772583"
     ry="1.0642064"
     transform="rotate(-15.154068)"
     fill="#231f20"
     id="ellipse116"
     style="stroke-width:0.994585" />
  <path
     d="m 255.56,61.71 a 2.2,2.2 0 0 1 -0.68,-0.09 0.52060061,0.52060061 0 0 1 0.29,-1 c 0.08,0 1.68,0.46 2.84,-1.88 a 0.51,0.51 0 0 1 0.67,-0.22 0.5,0.5 0 0 1 0.23,0.67 3.84,3.84 0 0 1 -3.35,2.52 z"
     fill="#231f20"
     id="path118" />
  <path
     d="m 258.34,85.2 c 0,0 -26.14,17.65 -29.85,17.45 -3.71,-0.2 -9.11,-2.93 -9.25,-1 -0.14,1.93 5.36,3.6 5.36,3.6 0,0 -7.65,0.92 -7.41,3.16 0.24,2.24 2.95,4.82 6.16,4.45 3.21,-0.37 5.47,-2 8.33,-2.51 2.86,-0.51 32.76,-15.14 32.76,-15.14 z"
     fill="white"
     id="path120" />
  <path
     d="m 222.73,113.42 a 6.21,6.21 0 0 1 -3.91,-1.42 5.44,5.44 0 0 1 -2.12,-3.51 c -0.21,-1.92 3.41,-2.94 5.87,-3.41 -1.74,-0.72 -3.94,-1.93 -3.83,-3.45 a 1.15,1.15 0 0 1 0.48,-0.88 c 0.84,-0.6 2.55,-0.13 4.73,0.46 a 24.78,24.78 0 0 0 4.57,0.94 v 0 c 2.77,0 19.11,-10.35 29.49,-17.36 a 0.49,0.49 0 0 1 0.39,-0.08 0.5,0.5 0 0 1 0.32,0.23 l 6.09,10 a 0.47,0.47 0 0 1 0.06,0.4 0.51,0.51 0 0 1 -0.26,0.3 c -1.23,0.6 -30,14.7 -32.9,15.18 a 18.21,18.21 0 0 0 -3.61,1.14 17.88,17.88 0 0 1 -4.74,1.38 c -0.18,0.06 -0.36,0.08 -0.63,0.08 z m -2.45,-12 a 0.86,0.86 0 0 0 -0.48,0.1 c 0,0 -0.05,0 -0.06,0.15 -0.08,1.06 2.94,2.46 5,3.08 a 0.50159745,0.50159745 0 0 1 -0.08,1 c -3,0.36 -7.09,1.47 -7,2.61 a 4.47,4.47 0 0 0 1.75,2.84 5.17,5.17 0 0 0 3.86,1.16 17.08,17.08 0 0 0 4.48,-1.31 18.79,18.79 0 0 1 3.81,-1.19 c 2.17,-0.36 21.68,-9.73 32.13,-14.85 l -5.53,-9.12 c -4.17,2.8 -26.15,17.45 -29.73,17.24 a 25.39,25.39 0 0 1 -4.78,-1 17.39,17.39 0 0 0 -3.37,-0.67 z"
     fill="#231f20"
     id="path122" />
  <polyline
     points="268.5 75.3 257.55 83.26 265.65 96.93 274.68 91.2"
     fill="#68e1fd"
     id="polyline124"
     style="fill:#36c" />
  <path
     d="m 265.65,97.43 h -0.12 a 0.53,0.53 0 0 1 -0.31,-0.24 l -8.1,-13.66 a 0.51,0.51 0 0 1 0.13,-0.66 l 11,-8 a 0.5,0.5 0 0 1 0.69,0.11 0.49,0.49 0 0 1 -0.11,0.7 l -10.58,7.7 7.61,12.83 8.6,-5.45 a 0.5,0.5 0 1 1 0.53,0.84 l -9,5.73 a 0.53,0.53 0 0 1 -0.34,0.1 z"
     fill="#231f20"
     id="path126" />
  <path
     d="m 178.45,93.92 a 3.39,3.39 0 0 0 -1.73,2.59 1.4,1.4 0 0 0 0.21,1 0.65,0.65 0 0 0 0.91,0.16 1.93,1.93 0 0 0 -0.21,2.78 2.77,2.77 0 0 0 2.91,0.62 4.94,4.94 0 0 0 2.36,-2 c 1.38,-2.08 2.45,-6.85 -0.49,-8.16 a 4.26,4.26 0 0 0 -3.82,0.61 c -0.54,0.35 -1.48,0.83 -1.43,1.62 0.03,0.56 0.7,1.43 1.29,0.78 z"
     fill="white"
     id="path128" />
  <path
     d="m 179.53,101.73 a 3,3 0 0 1 -2.27,-1 2.55,2.55 0 0 1 -0.6,-2 2.51,2.51 0 0 1 0.19,-0.69 1.47,1.47 0 0 1 -0.32,-0.29 1.81,1.81 0 0 1 -0.3,-1.34 3.77,3.77 0 0 1 1,-2.18 1.75,1.75 0 0 1 -0.53,-1.13 c -0.06,-1 0.86,-1.57 1.47,-2 l 0.19,-0.12 a 4.81,4.81 0 0 1 4.29,-0.65 3.5,3.5 0 0 1 2,2.33 8.88,8.88 0 0 1 -1.25,6.56 5.37,5.37 0 0 1 -2.62,2.2 3.64,3.64 0 0 1 -1.25,0.31 z m -1.47,-3.61 a 1.19,1.19 0 0 0 -0.4,0.79 1.54,1.54 0 0 0 0.34,1.19 2.24,2.24 0 0 0 2.38,0.48 4.4,4.4 0 0 0 2.1,-1.8 8,8 0 0 0 1.13,-5.73 2.54,2.54 0 0 0 -1.41,-1.7 3.78,3.78 0 0 0 -3.34,0.58 l -0.2,0.13 c -0.44,0.27 -1,0.64 -1,1 a 0.83,0.83 0 0 0 0.29,0.52 l 0.26,-0.15 a 0.51,0.51 0 0 1 0.64,0.13 0.49,0.49 0 0 1 0,0.64 1.18,1.18 0 0 1 -0.49,0.34 2.93,2.93 0 0 0 -1.11,2 0.93,0.93 0 0 0 0.11,0.64 0.2,0.2 0 0 0 0.17,0.08 h 0.06 a 0.49,0.49 0 0 1 0.67,0.1 0.5,0.5 0 0 1 -0.06,0.68 z"
     fill="#231f20"
     id="path130" />
  <rect
     x="74.660004"
     y="239.35001"
     width="76.300003"
     height="28.610001"
     fill="white"
     id="rect132" />
  <path
     d="M 151,268.46 H 74.66 a 0.5,0.5 0 0 1 -0.5,-0.5 v -28.61 a 0.5,0.5 0 0 1 0.5,-0.5 H 151 a 0.51,0.51 0 0 1 0.5,0.5 V 268 a 0.51,0.51 0 0 1 -0.5,0.46 z m -75.8,-1 h 75.3 V 239.85 H 75.16 Z"
     fill="#231f20"
     id="path134" />
  <rect
     x="161.85001"
     y="224.19"
     width="76.300003"
     height="43.77"
     fill="white"
     id="rect136" />
  <path
     d="m 238.15,268.46 h -76.3 a 0.5,0.5 0 0 1 -0.5,-0.5 v -43.77 a 0.5,0.5 0 0 1 0.5,-0.5 h 76.3 a 0.5,0.5 0 0 1 0.5,0.5 V 268 a 0.5,0.5 0 0 1 -0.5,0.46 z m -75.8,-1 h 75.3 v -42.77 h -75.3 z"
     fill="#231f20"
     id="path138" />
  <rect
     x="249.03999"
     y="206.06"
     width="76.300003"
     height="61.900002"
     fill="white"
     id="rect140" />
  <path
     d="M 325.34,268.46 H 249 a 0.51,0.51 0 0 1 -0.5,-0.5 v -61.9 a 0.5,0.5 0 0 1 0.5,-0.5 h 76.3 a 0.5,0.5 0 0 1 0.5,0.5 V 268 a 0.5,0.5 0 0 1 -0.46,0.46 z m -75.8,-1 h 75.3 v -60.9 h -75.3 z"
     fill="#231f20"
     id="path142" />
</svg>
